<svg width="170" height="180" viewBox="0 0 170 180" fill="none" xmlns="http://www.w3.org/2000/svg">
<rect x="0.5" y="90.5" width="169" height="89" rx="3.5" stroke="#2196F3"/>
<path d="M69 110L76.3076 116.918H96.6924V136.216L104 143.134V110H69Z" fill="#2196F3"/>
<path d="M63 116.626V148.814H97V136.02L76.5231 116.634L63 116.626ZM90.5231 144.106H68.3801V122.458H69.9453V142.64H90.5231V144.106Z" fill="#2196F3"/>
<path d="M72.791 154.784L73.6089 153.099H74.2925L73.1011 155.345V156.654H72.481V155.345L71.2871 153.099H71.9731L72.791 154.784ZM76.3018 155.826H74.9248L74.6367 156.654H73.9946L75.3374 153.099H75.8916L77.2368 156.654H76.5923L76.3018 155.826ZM75.0981 155.328H76.1284L75.6133 153.854L75.0981 155.328ZM78.7358 155.694C78.7358 155.53 78.7806 155.379 78.8701 155.243C78.9596 155.104 79.1362 154.941 79.3999 154.752C79.2616 154.578 79.1647 154.43 79.1094 154.308C79.0557 154.186 79.0288 154.068 79.0288 153.954C79.0288 153.675 79.1134 153.456 79.2827 153.294C79.452 153.132 79.6799 153.05 79.9663 153.05C80.2251 153.05 80.4367 153.127 80.6011 153.28C80.7671 153.431 80.8501 153.619 80.8501 153.844C80.8501 153.992 80.8127 154.129 80.7378 154.254C80.6629 154.378 80.54 154.501 80.3691 154.625L80.1274 154.801L80.8135 155.611C80.9128 155.416 80.9624 155.199 80.9624 154.959H81.4775C81.4775 155.397 81.375 155.756 81.1699 156.036L81.6924 156.654H81.0039L80.8037 156.417C80.5498 156.607 80.2471 156.703 79.8955 156.703C79.5439 156.703 79.2624 156.61 79.0508 156.424C78.8408 156.237 78.7358 155.994 78.7358 155.694ZM79.9126 156.229C80.1128 156.229 80.3 156.162 80.4741 156.029L79.6978 155.113L79.6221 155.167C79.4268 155.315 79.3291 155.484 79.3291 155.675C79.3291 155.839 79.382 155.973 79.4878 156.075C79.5936 156.178 79.7352 156.229 79.9126 156.229ZM79.5854 153.939C79.5854 154.076 79.6693 154.247 79.8369 154.454L80.1079 154.269L80.1836 154.208C80.2845 154.118 80.335 154.003 80.335 153.863C80.335 153.771 80.3 153.692 80.23 153.626C80.16 153.56 80.0713 153.526 79.9639 153.526C79.8483 153.526 79.7563 153.565 79.688 153.644C79.6196 153.722 79.5854 153.82 79.5854 153.939ZM86.043 155.497C86.0072 155.876 85.8672 156.172 85.623 156.385C85.3789 156.597 85.0542 156.703 84.6489 156.703C84.3657 156.703 84.1159 156.636 83.8994 156.502C83.6846 156.367 83.5186 156.176 83.4014 155.929C83.2842 155.681 83.2231 155.394 83.2183 155.067V154.735C83.2183 154.4 83.2777 154.104 83.3965 153.849C83.5153 153.593 83.6854 153.396 83.9067 153.258C84.1297 153.119 84.3869 153.05 84.6782 153.05C85.0705 153.05 85.3862 153.157 85.6255 153.37C85.8647 153.583 86.0039 153.884 86.043 154.273H85.4277C85.3984 154.018 85.3236 153.834 85.2031 153.722C85.0843 153.608 84.9093 153.551 84.6782 153.551C84.4097 153.551 84.203 153.649 84.0581 153.846C83.9149 154.042 83.8416 154.329 83.8384 154.708V155.023C83.8384 155.407 83.9067 155.7 84.0435 155.902C84.1818 156.104 84.3836 156.205 84.6489 156.205C84.8914 156.205 85.0737 156.15 85.1958 156.041C85.3179 155.932 85.3952 155.75 85.4277 155.497H86.043ZM89.4341 154.969C89.4341 155.318 89.3739 155.624 89.2534 155.887C89.133 156.149 88.9604 156.351 88.7358 156.493C88.5129 156.633 88.2557 156.703 87.9644 156.703C87.6763 156.703 87.4191 156.633 87.1929 156.493C86.9683 156.351 86.7941 156.15 86.6704 155.89C86.5483 155.629 86.4865 155.329 86.4849 154.989V154.789C86.4849 154.442 86.5459 154.136 86.668 153.871C86.7917 153.605 86.965 153.403 87.188 153.263C87.4126 153.121 87.6698 153.05 87.9595 153.05C88.2492 153.05 88.5055 153.12 88.7285 153.26C88.9531 153.399 89.1265 153.599 89.2485 153.861C89.3706 154.121 89.4325 154.425 89.4341 154.771V154.969ZM88.8164 154.784C88.8164 154.39 88.7415 154.088 88.5918 153.878C88.4437 153.668 88.2329 153.563 87.9595 153.563C87.6925 153.563 87.4834 153.668 87.332 153.878C87.1823 154.086 87.1058 154.382 87.1025 154.764V154.969C87.1025 155.36 87.1782 155.662 87.3296 155.875C87.4826 156.088 87.6942 156.195 87.9644 156.195C88.2378 156.195 88.4478 156.091 88.5942 155.882C88.7424 155.674 88.8164 155.37 88.8164 154.969V154.784Z" fill="#2196F3"/>
<rect x="0.5" y="0.5" width="169" height="89" rx="3.5" stroke="#AFB1B8"/>
<path d="M69 20L76.3076 26.918H96.6924V46.2158L104 53.1338V20H69Z" fill="#AFB1B8"/>
<path d="M63 26.6265V58.8137H97V46.0195L76.5231 26.6344L63 26.6265ZM90.5231 54.1055H68.3801V32.4579H69.9453V52.6397H90.5231V54.1055Z" fill="#AFB1B8"/>
<path d="M72.791 64.7837L73.6089 63.0991H74.2925L73.1011 65.3452V66.6538H72.481V65.3452L71.2871 63.0991H71.9731L72.791 64.7837ZM76.3018 65.8262H74.9248L74.6367 66.6538H73.9946L75.3374 63.0991H75.8916L77.2368 66.6538H76.5923L76.3018 65.8262ZM75.0981 65.3281H76.1284L75.6133 63.8535L75.0981 65.3281ZM78.7358 65.6943C78.7358 65.5299 78.7806 65.3794 78.8701 65.2427C78.9596 65.1043 79.1362 64.9408 79.3999 64.752C79.2616 64.5778 79.1647 64.4297 79.1094 64.3076C79.0557 64.1855 79.0288 64.0675 79.0288 63.9536C79.0288 63.6753 79.1134 63.4556 79.2827 63.2944C79.452 63.1317 79.6799 63.0503 79.9663 63.0503C80.2251 63.0503 80.4367 63.1268 80.6011 63.2798C80.7671 63.4312 80.8501 63.6191 80.8501 63.8438C80.8501 63.9919 80.8127 64.1286 80.7378 64.2539C80.6629 64.3776 80.54 64.5013 80.3691 64.625L80.1274 64.8008L80.8135 65.6113C80.9128 65.416 80.9624 65.1987 80.9624 64.9595H81.4775C81.4775 65.3973 81.375 65.7562 81.1699 66.0361L81.6924 66.6538H81.0039L80.8037 66.417C80.5498 66.6074 80.2471 66.7026 79.8955 66.7026C79.5439 66.7026 79.2624 66.6099 79.0508 66.4243C78.8408 66.2371 78.7358 65.9938 78.7358 65.6943ZM79.9126 66.229C80.1128 66.229 80.3 66.1623 80.4741 66.0288L79.6978 65.1133L79.6221 65.167C79.4268 65.3151 79.3291 65.4844 79.3291 65.6748C79.3291 65.8392 79.382 65.9727 79.4878 66.0752C79.5936 66.1777 79.7352 66.229 79.9126 66.229ZM79.5854 63.939C79.5854 64.0757 79.6693 64.2474 79.8369 64.4541L80.1079 64.2686L80.1836 64.2075C80.2845 64.118 80.335 64.0033 80.335 63.8633C80.335 63.7705 80.3 63.6916 80.23 63.6265C80.16 63.5597 80.0713 63.5264 79.9639 63.5264C79.8483 63.5264 79.7563 63.5654 79.688 63.6436C79.6196 63.7217 79.5854 63.8201 79.5854 63.939ZM86.043 65.4966C86.0072 65.8758 85.8672 66.172 85.623 66.3853C85.3789 66.5968 85.0542 66.7026 84.6489 66.7026C84.3657 66.7026 84.1159 66.6359 83.8994 66.5024C83.6846 66.3674 83.5186 66.1761 83.4014 65.9287C83.2842 65.6813 83.2231 65.394 83.2183 65.0669V64.7349C83.2183 64.3996 83.2777 64.1042 83.3965 63.8486C83.5153 63.5931 83.6854 63.3962 83.9067 63.2578C84.1297 63.1195 84.3869 63.0503 84.6782 63.0503C85.0705 63.0503 85.3862 63.1569 85.6255 63.3701C85.8647 63.5833 86.0039 63.8844 86.043 64.2734H85.4277C85.3984 64.0179 85.3236 63.834 85.2031 63.7217C85.0843 63.6077 84.9093 63.5508 84.6782 63.5508C84.4097 63.5508 84.203 63.6493 84.0581 63.8462C83.9149 64.0415 83.8416 64.3288 83.8384 64.708V65.0229C83.8384 65.4071 83.9067 65.7 84.0435 65.9019C84.1818 66.1037 84.3836 66.2046 84.6489 66.2046C84.8914 66.2046 85.0737 66.1501 85.1958 66.041C85.3179 65.932 85.3952 65.7505 85.4277 65.4966H86.043ZM89.4341 64.9692C89.4341 65.3175 89.3739 65.6235 89.2534 65.8872C89.133 66.1493 88.9604 66.3511 88.7358 66.4927C88.5129 66.6326 88.2557 66.7026 87.9644 66.7026C87.6763 66.7026 87.4191 66.6326 87.1929 66.4927C86.9683 66.3511 86.7941 66.1501 86.6704 65.8896C86.5483 65.6292 86.4865 65.3289 86.4849 64.9888V64.7886C86.4849 64.4419 86.5459 64.1359 86.668 63.8706C86.7917 63.6053 86.965 63.4027 87.188 63.2627C87.4126 63.1211 87.6698 63.0503 87.9595 63.0503C88.2492 63.0503 88.5055 63.1203 88.7285 63.2603C88.9531 63.3986 89.1265 63.5988 89.2485 63.8608C89.3706 64.1213 89.4325 64.4248 89.4341 64.7715V64.9692ZM88.8164 64.7837C88.8164 64.3898 88.7415 64.0879 88.5918 63.8779C88.4437 63.668 88.2329 63.563 87.9595 63.563C87.6925 63.563 87.4834 63.668 87.332 63.8779C87.1823 64.0863 87.1058 64.3817 87.1025 64.7642V64.9692C87.1025 65.3599 87.1782 65.6618 87.3296 65.875C87.4826 66.0882 87.6942 66.1948 87.9644 66.1948C88.2378 66.1948 88.4478 66.0907 88.5942 65.8823C88.7424 65.674 88.8164 65.3696 88.8164 64.9692V64.7837Z" fill="#AFB1B8"/>
</svg>
