<svg width="170" height="180" viewBox="0 0 170 180" fill="none" xmlns="http://www.w3.org/2000/svg">
<rect x="0.5" y="90.5" width="169" height="89" rx="3.5" stroke="#2196F3"/>
<path d="M60.4876 151.278C60.7175 151.563 60.84 151.921 60.8336 152.288C60.8453 152.528 60.8032 152.767 60.7104 152.988C60.6176 153.209 60.4765 153.406 60.2975 153.565C59.851 153.904 59.2977 154.069 58.7393 154.031H56V147.626H58.6832C59.2129 147.591 59.7383 147.741 60.1698 148.052C60.3431 148.197 60.4803 148.382 60.5706 148.589C60.6609 148.797 60.7019 149.024 60.6902 149.25C60.706 149.604 60.5954 149.951 60.3786 150.23C60.1704 150.484 59.8826 150.66 59.5621 150.73C59.9255 150.797 60.2535 150.991 60.4876 151.278ZM57.2746 150.311H58.4215C58.6821 150.33 58.941 150.255 59.1507 150.098C59.2368 150.02 59.3038 149.923 59.3465 149.814C59.3892 149.706 59.4064 149.589 59.3969 149.472C59.405 149.357 59.3874 149.24 59.3453 149.132C59.3033 149.024 59.2379 148.926 59.1538 148.847C58.9378 148.686 58.6709 148.609 58.4028 148.631H57.2746V150.311ZM59.2629 152.767C59.3549 152.687 59.4273 152.586 59.4743 152.474C59.5213 152.361 59.5418 152.238 59.534 152.116C59.541 151.993 59.5197 151.869 59.4716 151.755C59.4235 151.641 59.35 151.54 59.2567 151.459C59.0323 151.292 58.7563 151.21 58.4776 151.228H57.2746V152.989H58.4931C58.7674 153.005 59.0389 152.927 59.2629 152.767Z" fill="#2196F3"/>
<path d="M65.9724 154.031L64.4797 151.528H63.9187V154.031H62.6348V147.626H65.0656C65.6783 147.583 66.284 147.778 66.7578 148.171C67.0976 148.518 67.3025 148.976 67.3357 149.462C67.3688 149.948 67.228 150.43 66.9385 150.821C66.6386 151.166 66.229 151.396 65.7792 151.472L67.3686 154.031H65.9724ZM63.9187 150.655H64.969C65.6982 150.655 66.0628 150.332 66.0628 149.685C66.0703 149.553 66.0503 149.421 66.0041 149.297C65.958 149.173 65.8867 149.06 65.7948 148.966C65.5644 148.773 65.2676 148.68 64.969 148.706H63.9063L63.9187 150.655Z" fill="#2196F3"/>
<path d="M72.9908 152.742H70.4322L69.9803 154.031H68.634L70.9838 147.698H72.4392L74.7796 154.031H73.4333L72.9908 152.742ZM72.648 151.772L71.7131 149.069L70.7781 151.772H72.648Z" fill="#2196F3"/>
<path d="M81.7759 154.031H80.5013L77.6436 149.676V154.031H76.3721V147.626H77.6436L80.5013 152.007V147.626H81.7759V154.031Z" fill="#2196F3"/>
<path d="M89.0497 152.498C88.7862 152.982 88.3846 153.375 87.8966 153.628C87.3418 153.909 86.7261 154.048 86.1047 154.031H83.8359V147.626H86.1047C86.725 147.61 87.3399 147.745 87.8966 148.021C88.3845 148.267 88.7865 148.657 89.0497 149.138C89.3121 149.659 89.4488 150.234 89.4488 150.818C89.4488 151.402 89.3121 151.977 89.0497 152.498ZM87.5912 152.345C87.955 151.919 88.155 151.377 88.155 150.816C88.155 150.256 87.955 149.713 87.5912 149.288C87.1515 148.902 86.5781 148.707 85.9956 148.743H85.1106V152.889H85.9956C86.5781 152.926 87.1515 152.73 87.5912 152.345Z" fill="#2196F3"/>
<path d="M73.7886 112C73.7886 112 90.2401 118.236 89.8911 127.26V142.523C89.8911 142.523 73.452 136.284 73.7948 127.26L73.7886 112Z" fill="#2196F3"/>
<path d="M104.548 138.95C107.655 136.803 111.249 135.473 115 135.082V130.304C110.677 131.977 107.01 135.01 104.548 138.95Z" fill="#2196F3"/>
<path d="M102.681 140.389C105.224 135.248 109.633 131.28 115 129.303V115.536C115 115.536 91.5708 124.419 92.0663 137.269V159C92.0663 159 93.1103 158.603 94.7527 157.858C94.7527 157.163 94.7527 156.462 94.8275 155.758C95.3124 149.793 98.1372 144.264 102.681 140.389Z" fill="#2196F3"/>
<path d="M100.453 148.462C100.576 146.955 100.85 145.464 101.272 144.012C98.4429 147.359 96.7296 151.512 96.3731 155.887C96.3388 156.3 96.3201 156.713 96.3108 157.138C97.6415 156.497 99.1904 155.696 100.817 154.754C100.402 152.684 100.279 150.566 100.453 148.462Z" fill="#2196F3"/>
<path d="M101.384 148.54C101.228 150.444 101.326 152.36 101.674 154.238C108.075 150.392 115.268 144.45 114.991 137.269V136.644C110.417 137.157 106.138 139.165 102.812 142.357C102.033 144.335 101.552 146.419 101.384 148.54Z" fill="#2196F3"/>
<rect x="0.5" y="0.5" width="169" height="89" rx="3.5" stroke="#AFB1B8"/>
<path d="M60.4876 61.2778C60.7175 61.5634 60.84 61.9212 60.8336 62.2884C60.8453 62.528 60.8032 62.7671 60.7104 62.988C60.6176 63.209 60.4765 63.4062 60.2975 63.565C59.851 63.9037 59.2977 64.0692 58.7393 64.0313H56V57.6263H58.6832C59.2129 57.5909 59.7383 57.7413 60.1698 58.0518C60.3431 58.1974 60.4803 58.3815 60.5706 58.5895C60.6609 58.7974 60.7019 59.0236 60.6902 59.2502C60.706 59.6035 60.5954 59.9509 60.3786 60.2296C60.1704 60.4841 59.8826 60.6605 59.5621 60.7302C59.9255 60.7968 60.2535 60.9909 60.4876 61.2778V61.2778ZM57.2746 60.3109H58.4215C58.6821 60.3303 58.941 60.2548 59.1507 60.0982C59.2368 60.0198 59.3038 59.9226 59.3465 59.8141C59.3892 59.7056 59.4064 59.5887 59.3969 59.4724C59.405 59.3565 59.3874 59.2403 59.3453 59.1321C59.3033 59.0239 59.2379 58.9264 59.1538 58.8466C58.9378 58.6856 58.6709 58.6088 58.4028 58.6307H57.2746V60.3109ZM59.2629 62.7672C59.3549 62.6869 59.4273 62.5865 59.4743 62.4736C59.5213 62.3607 59.5418 62.2385 59.534 62.1163C59.541 61.9928 59.5197 61.8693 59.4716 61.7553C59.4235 61.6414 59.35 61.5401 59.2567 61.4593C59.0323 61.2922 58.7563 61.2102 58.4776 61.2277H57.2746V62.9893H58.4931C58.7674 63.0052 59.0389 62.9269 59.2629 62.7672V62.7672Z" fill="#AFB1B8"/>
<path d="M65.9724 64.0313L64.4797 61.5281H63.9187V64.0313H62.6348V57.6263H65.0656C65.6783 57.5834 66.284 57.7783 66.7578 58.1708C67.0976 58.5184 67.3025 58.9764 67.3357 59.4624C67.3688 59.9483 67.228 60.4301 66.9385 60.821C66.6386 61.1659 66.229 61.3959 65.7792 61.4718L67.3686 64.0313H65.9724ZM63.9187 60.6552H64.969C65.6982 60.6552 66.0628 60.3318 66.0628 59.6852C66.0703 59.5531 66.0503 59.421 66.0041 59.2971C65.958 59.1732 65.8867 59.0603 65.7948 58.9655C65.5644 58.7731 65.2676 58.6798 64.969 58.7058H63.9063L63.9187 60.6552Z" fill="#AFB1B8"/>
<path d="M72.9908 62.742H70.4322L69.9803 64.0311H68.634L70.9838 57.6981H72.4392L74.7796 64.0311H73.4333L72.9908 62.742ZM72.648 61.772L71.7131 59.0686L70.7781 61.772H72.648Z" fill="#AFB1B8"/>
<path d="M81.7759 64.0312H80.5013L77.6436 59.6757V64.0312H76.3721V57.6262H77.6436L80.5013 62.0068V57.6262H81.7759V64.0312Z" fill="#AFB1B8"/>
<path d="M89.0497 62.4981C88.7862 62.9817 88.3846 63.375 87.8966 63.6276C87.3418 63.909 86.7261 64.0477 86.1047 64.0313H83.8359V57.6263H86.1047C86.725 57.61 87.3399 57.7453 87.8966 58.0206C88.3845 58.2674 88.7865 58.6569 89.0497 59.1376C89.3121 59.6585 89.4488 60.2341 89.4488 60.8178C89.4488 61.4016 89.3121 61.9772 89.0497 62.4981V62.4981ZM87.5912 62.3448C87.955 61.9193 88.155 61.377 88.155 60.8163C88.155 60.2555 87.955 59.7133 87.5912 59.2878C87.1515 58.9024 86.5781 58.7067 85.9956 58.7433H85.1106V62.8892H85.9956C86.5781 62.9258 87.1515 62.7302 87.5912 62.3448Z" fill="#AFB1B8"/>
<path d="M73.7886 22C73.7886 22 90.2401 28.236 89.8911 37.2599V52.5229C89.8911 52.5229 73.452 46.2838 73.7948 37.2599L73.7886 22Z" fill="#AFB1B8"/>
<path d="M104.548 48.9496C107.655 46.8028 111.249 45.4731 115 45.0822V40.3043C110.677 41.977 107.01 45.0101 104.548 48.9496V48.9496Z" fill="#AFB1B8"/>
<path d="M102.681 50.389C105.224 45.2478 109.633 41.2805 115 39.3032V25.5358C115 25.5358 91.5708 34.4189 92.0663 47.2695V69C92.0663 69 93.1103 68.6027 94.7527 67.858C94.7527 67.1633 94.7527 66.4625 94.8275 65.7584C95.3124 59.7926 98.1372 54.2643 102.681 50.389V50.389Z" fill="#AFB1B8"/>
<path d="M100.453 58.4617C100.576 56.9546 100.85 55.4639 101.272 54.0123C98.4429 57.3589 96.7296 61.5117 96.3731 65.8867C96.3388 66.2997 96.3201 66.7127 96.3108 67.1383C97.6415 66.4968 99.1904 65.6958 100.817 64.754C100.402 62.6842 100.279 60.5659 100.453 58.4617V58.4617Z" fill="#AFB1B8"/>
<path d="M101.384 58.54C101.228 60.4437 101.326 62.3599 101.674 64.2378C108.075 60.3923 115.268 54.4504 114.991 47.2695V46.6437C110.417 47.1575 106.138 49.1648 102.812 52.3571C102.033 54.3355 101.552 56.4193 101.384 58.54V58.54Z" fill="#AFB1B8"/>
</svg>
