<svg width="170" height="180" viewBox="0 0 170 180" fill="none" xmlns="http://www.w3.org/2000/svg">
<rect x="0.5" y="90.5" width="169" height="89" rx="3.5" stroke="#2196F3"/>
<path d="M57.402 126.831H57.3992C55.1369 126.831 53.303 128.618 53.303 130.822V130.825C53.303 133.029 55.1369 134.817 57.3992 134.817H57.402C59.6643 134.817 61.4982 133.029 61.4982 130.825V130.822C61.4982 128.618 59.6643 126.831 57.402 126.831Z" fill="#2196F3"/>
<path d="M87.6368 125.554C87.6304 122.492 86.3795 119.558 84.1579 117.392C81.9363 115.227 78.925 114.007 75.7828 114V114C72.6397 114.006 69.6269 115.225 67.4041 117.39C65.1814 119.556 63.9298 122.492 63.9233 125.554V142.44C63.9233 142.44 87.6341 139.867 87.6368 125.557V125.554Z" fill="#2196F3"/>
<path d="M45 147.982C45.0057 150.113 45.8766 152.155 47.4223 153.662C48.968 155.168 51.0629 156.018 53.2492 156.024C55.4351 156.018 57.5296 155.169 59.0752 153.662C60.6209 152.156 61.492 150.115 61.4985 147.985V136.236C61.4985 136.236 45 138.028 45 147.982ZM53.2492 150.087C52.822 150.087 52.4043 149.964 52.0491 149.733C51.6938 149.501 51.417 149.173 51.2535 148.788C51.09 148.403 51.0472 147.98 51.1305 147.572C51.2139 147.163 51.4196 146.788 51.7217 146.494C52.0239 146.199 52.4088 145.999 52.8278 145.918C53.2468 145.836 53.6812 145.878 54.0759 146.037C54.4706 146.197 54.808 146.467 55.0454 146.813C55.2827 147.159 55.4094 147.566 55.4094 147.982C55.4105 148.259 55.3554 148.534 55.2473 148.79C55.1392 149.047 54.9803 149.28 54.7796 149.476C54.5789 149.672 54.3404 149.828 54.0778 149.934C53.8152 150.041 53.5336 150.095 53.2492 150.095V150.087Z" fill="#2196F3"/>
<path d="M70.0891 148.781H68.4016V150.524H67.5227V146.259H70.3V146.971H68.4016V148.072H70.0891V148.781ZM74.3137 148.488C74.3137 148.908 74.2395 149.276 74.0911 149.593C73.9426 149.909 73.7297 150.153 73.4524 150.325C73.177 150.497 72.8606 150.583 72.5032 150.583C72.1497 150.583 71.8342 150.498 71.5569 150.328C71.2795 150.158 71.0647 149.916 70.9124 149.602C70.76 149.285 70.6829 148.922 70.6809 148.512V148.301C70.6809 147.881 70.7561 147.512 70.9065 147.193C71.0588 146.873 71.2727 146.628 71.5481 146.458C71.8254 146.286 72.1418 146.2 72.4973 146.2C72.8528 146.2 73.1682 146.286 73.4436 146.458C73.7209 146.628 73.9348 146.873 74.0852 147.193C74.2375 147.512 74.3137 147.88 74.3137 148.298V148.488ZM73.4231 148.295C73.4231 147.848 73.343 147.508 73.1829 147.275C73.0227 147.043 72.7942 146.927 72.4973 146.927C72.2024 146.927 71.9749 147.042 71.8147 147.272C71.6545 147.501 71.5735 147.837 71.5715 148.28V148.488C71.5715 148.924 71.6516 149.262 71.8118 149.502C71.9719 149.742 72.2024 149.862 72.5032 149.862C72.7981 149.862 73.0247 149.747 73.1829 149.517C73.3411 149.284 73.4211 148.946 73.4231 148.503V148.295ZM77.1643 149.405C77.1643 149.239 77.1057 149.112 76.9885 149.024C76.8713 148.935 76.6604 148.841 76.3557 148.743C76.051 148.644 75.8098 148.546 75.6321 148.45C75.1477 148.188 74.9055 147.836 74.9055 147.393C74.9055 147.162 74.97 146.957 75.0989 146.777C75.2297 146.596 75.4163 146.454 75.6584 146.353C75.9026 146.251 76.176 146.2 76.4788 146.2C76.7834 146.2 77.0549 146.256 77.2932 146.367C77.5315 146.477 77.7161 146.632 77.8469 146.833C77.9797 147.034 78.0461 147.263 78.0461 147.519H77.1672C77.1672 147.323 77.1057 147.172 76.9827 147.064C76.8596 146.955 76.6868 146.9 76.4641 146.9C76.2493 146.9 76.0823 146.946 75.9631 147.038C75.844 147.128 75.7844 147.247 75.7844 147.396C75.7844 147.534 75.8538 147.65 75.9924 147.744C76.1331 147.838 76.3391 147.926 76.6106 148.008C77.1106 148.158 77.4749 148.345 77.7034 148.567C77.9319 148.79 78.0461 149.067 78.0461 149.399C78.0461 149.769 77.9065 150.059 77.6272 150.27C77.3479 150.479 76.9719 150.583 76.4993 150.583C76.1711 150.583 75.8723 150.523 75.6028 150.404C75.3333 150.283 75.1272 150.118 74.9846 149.909C74.844 149.7 74.7737 149.458 74.7737 149.183H75.6555C75.6555 149.653 75.9368 149.889 76.4993 149.889C76.7083 149.889 76.8713 149.847 76.9885 149.763C77.1057 149.677 77.1643 149.558 77.1643 149.405ZM81.8547 146.971H80.5481V150.524H79.6692V146.971H78.3801V146.259H81.8547V146.971ZM84.925 148.676H83.2375V149.818H85.218V150.524H82.3586V146.259H85.2122V146.971H83.2375V147.987H84.925V148.676ZM87.3127 148.963H86.6125V150.524H85.7336V146.259H87.3186C87.8225 146.259 88.2112 146.371 88.4846 146.596C88.7581 146.82 88.8948 147.138 88.8948 147.548C88.8948 147.839 88.8313 148.082 88.7043 148.277C88.5793 148.471 88.3889 148.625 88.1331 148.74L89.0559 150.483V150.524H88.1125L87.3127 148.963ZM86.6125 148.251H87.3215C87.5422 148.251 87.7131 148.195 87.8342 148.084C87.9553 147.971 88.0159 147.815 88.0159 147.618C88.0159 147.417 87.9583 147.259 87.843 147.144C87.7297 147.028 87.5549 146.971 87.3186 146.971H86.6125V148.251ZM91.9387 149.021V150.524H91.0598V146.259H92.7239C93.0442 146.259 93.3254 146.317 93.5676 146.435C93.8118 146.552 93.9993 146.719 94.1301 146.936C94.261 147.15 94.3264 147.396 94.3264 147.671C94.3264 148.089 94.1829 148.419 93.8958 148.661C93.6106 148.901 93.2151 149.021 92.7092 149.021H91.9387ZM91.9387 148.31H92.7239C92.9563 148.31 93.1331 148.255 93.2542 148.146C93.3772 148.036 93.4387 147.88 93.4387 147.677C93.4387 147.468 93.3772 147.299 93.2542 147.17C93.1311 147.041 92.9612 146.975 92.7444 146.971H91.9387V148.31ZM97.4993 148.676H95.8118V149.818H97.7922V150.524H94.9329V146.259H97.7864V146.971H95.8118V147.987H97.4993V148.676ZM101.577 146.971H100.271V150.524H99.3918V146.971H98.1028V146.259H101.577V146.971ZM104.648 148.676H102.96V149.818H104.941V150.524H102.081V146.259H104.935V146.971H102.96V147.987H104.648V148.676ZM107.035 148.963H106.335V150.524H105.456V146.259H107.041C107.545 146.259 107.934 146.371 108.207 146.596C108.481 146.82 108.617 147.138 108.617 147.548C108.617 147.839 108.554 148.082 108.427 148.277C108.302 148.471 108.112 148.625 107.856 148.74L108.779 150.483V150.524H107.835L107.035 148.963ZM106.335 148.251H107.044C107.265 148.251 107.436 148.195 107.557 148.084C107.678 147.971 107.739 147.815 107.739 147.618C107.739 147.417 107.681 147.259 107.566 147.144C107.452 147.028 107.278 146.971 107.041 146.971H106.335V148.251ZM111.5 149.405C111.5 149.239 111.442 149.112 111.324 149.024C111.207 148.935 110.996 148.841 110.692 148.743C110.387 148.644 110.146 148.546 109.968 148.45C109.484 148.188 109.241 147.836 109.241 147.393C109.241 147.162 109.306 146.957 109.435 146.777C109.566 146.596 109.752 146.454 109.994 146.353C110.239 146.251 110.512 146.2 110.815 146.2C111.119 146.2 111.391 146.256 111.629 146.367C111.867 146.477 112.052 146.632 112.183 146.833C112.316 147.034 112.382 147.263 112.382 147.519H111.503C111.503 147.323 111.442 147.172 111.319 147.064C111.196 146.955 111.023 146.9 110.8 146.9C110.585 146.9 110.418 146.946 110.299 147.038C110.18 147.128 110.12 147.247 110.12 147.396C110.12 147.534 110.19 147.65 110.328 147.744C110.469 147.838 110.675 147.926 110.947 148.008C111.447 148.158 111.811 148.345 112.039 148.567C112.268 148.79 112.382 149.067 112.382 149.399C112.382 149.769 112.242 150.059 111.963 150.27C111.684 150.479 111.308 150.583 110.835 150.583C110.507 150.583 110.208 150.523 109.939 150.404C109.669 150.283 109.463 150.118 109.321 149.909C109.18 149.7 109.11 149.458 109.11 149.183H109.991C109.991 149.653 110.273 149.889 110.835 149.889C111.044 149.889 111.207 149.847 111.324 149.763C111.442 149.677 111.5 149.558 111.5 149.405Z" fill="#2196F3"/>
<rect x="0.5" y="0.5" width="169" height="89" rx="3.5" stroke="#AFB1B8"/>
<path d="M57.402 36.8306H57.3992C55.1369 36.8306 53.303 38.6177 53.303 40.8223V40.8249C53.303 43.0295 55.1369 44.8167 57.3992 44.8167H57.402C59.6643 44.8167 61.4982 43.0295 61.4982 40.8249V40.8223C61.4982 38.6177 59.6643 36.8306 57.402 36.8306Z" fill="#AFB1B8"/>
<path d="M87.6368 35.5545C87.6304 32.4924 86.3795 29.5575 84.1579 27.3921C81.9363 25.2266 78.925 24.007 75.7828 24V24C72.6397 24.0056 69.6269 25.2246 67.4041 27.3902C65.1814 29.5558 63.9298 32.4915 63.9233 35.5545V35.5545V52.4402C63.9233 52.4402 87.6341 49.8667 87.6368 35.5571V35.5545Z" fill="#AFB1B8"/>
<path d="M45 57.9823C45.0057 60.1129 45.8766 62.1547 47.4223 63.6615C48.968 65.1683 51.0629 66.0177 53.2492 66.0239V66.0239C55.4351 66.0177 57.5296 65.1687 59.0752 63.6625C60.6209 62.1562 61.492 60.1151 61.4985 57.9849V57.9849V46.2356C61.4985 46.2356 45 48.0276 45 57.9823ZM53.2492 60.0874C52.822 60.0874 52.4043 59.964 52.0491 59.7326C51.6938 59.5013 51.417 59.1726 51.2535 58.7879C51.09 58.4032 51.0472 57.98 51.1305 57.5716C51.2139 57.1632 51.4196 56.7881 51.7217 56.4937C52.0239 56.1993 52.4088 55.9988 52.8278 55.9176C53.2468 55.8364 53.6812 55.8781 54.0759 56.0374C54.4706 56.1967 54.808 56.4665 55.0454 56.8127C55.2827 57.1589 55.4094 57.5659 55.4094 57.9823C55.4105 58.2594 55.3554 58.534 55.2473 58.7903C55.1392 59.0466 54.9803 59.2796 54.7796 59.476C54.5789 59.6723 54.3404 59.828 54.0778 59.9343C53.8152 60.0406 53.5336 60.0953 53.2492 60.0953V60.0874Z" fill="#AFB1B8"/>
<path d="M70.0891 58.7812H68.4016V60.5244H67.5227V56.2588H70.3V56.9707H68.4016V58.0723H70.0891V58.7812ZM74.3137 58.4883C74.3137 58.9082 74.2395 59.2764 74.0911 59.5928C73.9426 59.9092 73.7297 60.1533 73.4524 60.3252C73.177 60.4971 72.8606 60.583 72.5032 60.583C72.1497 60.583 71.8342 60.498 71.5569 60.3281C71.2795 60.1582 71.0647 59.916 70.9124 59.6016C70.76 59.2852 70.6829 58.9219 70.6809 58.5117V58.3008C70.6809 57.8809 70.7561 57.5117 70.9065 57.1934C71.0588 56.873 71.2727 56.6279 71.5481 56.458C71.8254 56.2861 72.1418 56.2002 72.4973 56.2002C72.8528 56.2002 73.1682 56.2861 73.4436 56.458C73.7209 56.6279 73.9348 56.873 74.0852 57.1934C74.2375 57.5117 74.3137 57.8799 74.3137 58.2979V58.4883ZM73.4231 58.2949C73.4231 57.8477 73.343 57.5078 73.1829 57.2754C73.0227 57.043 72.7942 56.9268 72.4973 56.9268C72.2024 56.9268 71.9749 57.042 71.8147 57.2725C71.6545 57.501 71.5735 57.8369 71.5715 58.2803V58.4883C71.5715 58.9238 71.6516 59.2617 71.8118 59.502C71.9719 59.7422 72.2024 59.8623 72.5032 59.8623C72.7981 59.8623 73.0247 59.7471 73.1829 59.5166C73.3411 59.2842 73.4211 58.9463 73.4231 58.5029V58.2949ZM77.1643 59.4053C77.1643 59.2393 77.1057 59.1123 76.9885 59.0244C76.8713 58.9346 76.6604 58.8408 76.3557 58.7432C76.051 58.6436 75.8098 58.5459 75.6321 58.4502C75.1477 58.1885 74.9055 57.8359 74.9055 57.3926C74.9055 57.1621 74.97 56.957 75.0989 56.7773C75.2297 56.5957 75.4163 56.4541 75.6584 56.3525C75.9026 56.251 76.176 56.2002 76.4788 56.2002C76.7834 56.2002 77.0549 56.2559 77.2932 56.3672C77.5315 56.4766 77.7161 56.6318 77.8469 56.833C77.9797 57.0342 78.0461 57.2627 78.0461 57.5186H77.1672C77.1672 57.3232 77.1057 57.1719 76.9827 57.0645C76.8596 56.9551 76.6868 56.9004 76.4641 56.9004C76.2493 56.9004 76.0823 56.9463 75.9631 57.0381C75.844 57.1279 75.7844 57.2471 75.7844 57.3955C75.7844 57.5342 75.8538 57.6504 75.9924 57.7441C76.1331 57.8379 76.3391 57.9258 76.6106 58.0078C77.1106 58.1582 77.4749 58.3447 77.7034 58.5674C77.9319 58.79 78.0461 59.0674 78.0461 59.3994C78.0461 59.7686 77.9065 60.0586 77.6272 60.2695C77.3479 60.4785 76.9719 60.583 76.4993 60.583C76.1711 60.583 75.8723 60.5234 75.6028 60.4043C75.3333 60.2832 75.1272 60.1182 74.9846 59.9092C74.844 59.7002 74.7737 59.458 74.7737 59.1826H75.6555C75.6555 59.6533 75.9368 59.8887 76.4993 59.8887C76.7083 59.8887 76.8713 59.8467 76.9885 59.7627C77.1057 59.6768 77.1643 59.5576 77.1643 59.4053ZM81.8547 56.9707H80.5481V60.5244H79.6692V56.9707H78.3801V56.2588H81.8547V56.9707ZM84.925 58.6758H83.2375V59.8184H85.218V60.5244H82.3586V56.2588H85.2122V56.9707H83.2375V57.9873H84.925V58.6758ZM87.3127 58.9629H86.6125V60.5244H85.7336V56.2588H87.3186C87.8225 56.2588 88.2112 56.3711 88.4846 56.5957C88.7581 56.8203 88.8948 57.1377 88.8948 57.5479C88.8948 57.8389 88.8313 58.082 88.7043 58.2773C88.5793 58.4707 88.3889 58.625 88.1331 58.7402L89.0559 60.4834V60.5244H88.1125L87.3127 58.9629ZM86.6125 58.251H87.3215C87.5422 58.251 87.7131 58.1953 87.8342 58.084C87.9553 57.9707 88.0159 57.8154 88.0159 57.6182C88.0159 57.417 87.9583 57.2588 87.843 57.1436C87.7297 57.0283 87.5549 56.9707 87.3186 56.9707H86.6125V58.251ZM91.9387 59.0215V60.5244H91.0598V56.2588H92.7239C93.0442 56.2588 93.3254 56.3174 93.5676 56.4346C93.8118 56.5518 93.9993 56.7188 94.1301 56.9355C94.261 57.1504 94.3264 57.3955 94.3264 57.6709C94.3264 58.0889 94.1829 58.4189 93.8958 58.6611C93.6106 58.9014 93.2151 59.0215 92.7092 59.0215H91.9387ZM91.9387 58.3096H92.7239C92.9563 58.3096 93.1331 58.2549 93.2542 58.1455C93.3772 58.0361 93.4387 57.8799 93.4387 57.6768C93.4387 57.4678 93.3772 57.2988 93.2542 57.1699C93.1311 57.041 92.9612 56.9746 92.7444 56.9707H91.9387V58.3096ZM97.4993 58.6758H95.8118V59.8184H97.7922V60.5244H94.9329V56.2588H97.7864V56.9707H95.8118V57.9873H97.4993V58.6758ZM101.577 56.9707H100.271V60.5244H99.3918V56.9707H98.1028V56.2588H101.577V56.9707ZM104.648 58.6758H102.96V59.8184H104.941V60.5244H102.081V56.2588H104.935V56.9707H102.96V57.9873H104.648V58.6758ZM107.035 58.9629H106.335V60.5244H105.456V56.2588H107.041C107.545 56.2588 107.934 56.3711 108.207 56.5957C108.481 56.8203 108.617 57.1377 108.617 57.5479C108.617 57.8389 108.554 58.082 108.427 58.2773C108.302 58.4707 108.112 58.625 107.856 58.7402L108.779 60.4834V60.5244H107.835L107.035 58.9629ZM106.335 58.251H107.044C107.265 58.251 107.436 58.1953 107.557 58.084C107.678 57.9707 107.739 57.8154 107.739 57.6182C107.739 57.417 107.681 57.2588 107.566 57.1436C107.452 57.0283 107.278 56.9707 107.041 56.9707H106.335V58.251ZM111.5 59.4053C111.5 59.2393 111.442 59.1123 111.324 59.0244C111.207 58.9346 110.996 58.8408 110.692 58.7432C110.387 58.6436 110.146 58.5459 109.968 58.4502C109.484 58.1885 109.241 57.8359 109.241 57.3926C109.241 57.1621 109.306 56.957 109.435 56.7773C109.566 56.5957 109.752 56.4541 109.994 56.3525C110.239 56.251 110.512 56.2002 110.815 56.2002C111.119 56.2002 111.391 56.2559 111.629 56.3672C111.867 56.4766 112.052 56.6318 112.183 56.833C112.316 57.0342 112.382 57.2627 112.382 57.5186H111.503C111.503 57.3232 111.442 57.1719 111.319 57.0645C111.196 56.9551 111.023 56.9004 110.8 56.9004C110.585 56.9004 110.418 56.9463 110.299 57.0381C110.18 57.1279 110.12 57.2471 110.12 57.3955C110.12 57.5342 110.19 57.6504 110.328 57.7441C110.469 57.8379 110.675 57.9258 110.947 58.0078C111.447 58.1582 111.811 58.3447 112.039 58.5674C112.268 58.79 112.382 59.0674 112.382 59.3994C112.382 59.7686 112.242 60.0586 111.963 60.2695C111.684 60.4785 111.308 60.583 110.835 60.583C110.507 60.583 110.208 60.5234 109.939 60.4043C109.669 60.2832 109.463 60.1182 109.321 59.9092C109.18 59.7002 109.11 59.458 109.11 59.1826H109.991C109.991 59.6533 110.273 59.8887 110.835 59.8887C111.044 59.8887 111.207 59.8467 111.324 59.7627C111.442 59.6768 111.5 59.5576 111.5 59.4053Z" fill="#AFB1B8"/>
</svg>
