<svg width="170" height="180" viewBox="0 0 170 180" fill="none" xmlns="http://www.w3.org/2000/svg">
<rect x="0.5" y="90.5" width="169" height="89" rx="3.5" stroke="#2196F3"/>
<path d="M71.3454 155.795C71.3604 155.795 71.3752 155.798 71.3889 155.804C71.4026 155.81 71.4149 155.818 71.4251 155.829L71.6309 156.045C71.4712 156.219 71.2738 156.359 71.0522 156.454C70.7927 156.558 70.513 156.608 70.2317 156.601C69.9673 156.606 69.7046 156.559 69.46 156.464C69.2394 156.376 69.0412 156.244 68.8787 156.076C68.713 155.903 68.5853 155.7 68.5032 155.478C68.4133 155.232 68.3689 154.972 68.372 154.711C68.3684 154.449 68.4164 154.188 68.5135 153.942C68.6033 153.719 68.7389 153.516 68.9122 153.344C69.0878 153.175 69.2979 153.042 69.5295 152.954C69.7828 152.86 70.0526 152.814 70.3243 152.817C70.5766 152.811 70.8277 152.853 71.0625 152.942C71.2662 153.026 71.4532 153.143 71.6155 153.287L71.4432 153.518C71.4312 153.534 71.4164 153.548 71.3994 153.559C71.3791 153.573 71.3545 153.579 71.33 153.576C71.3033 153.575 71.2775 153.566 71.2554 153.552L71.1628 153.491L71.0342 153.412C70.9787 153.383 70.9211 153.358 70.8619 153.336C70.7856 153.31 70.7073 153.29 70.6278 153.275C70.5268 153.257 70.4243 153.249 70.3217 153.251C70.1261 153.248 69.9319 153.283 69.7507 153.353C69.5817 153.419 69.4291 153.517 69.3031 153.643C69.1749 153.776 69.076 153.933 69.0125 154.103C68.94 154.299 68.9043 154.504 68.907 154.711C68.9039 154.921 68.9396 155.131 69.0125 155.329C69.0752 155.498 69.1723 155.654 69.298 155.787C69.4158 155.912 69.5618 156.009 69.725 156.072C69.8929 156.138 70.0731 156.171 70.2548 156.17C70.3598 156.171 70.4648 156.165 70.5686 156.15C70.7382 156.13 70.9009 156.074 71.0445 155.986C71.1165 155.941 71.1844 155.89 71.2477 155.834C71.2741 155.81 71.3089 155.796 71.3454 155.795Z" fill="#2196F3"/>
<path d="M77.2871 154.711C77.2903 154.971 77.2432 155.229 77.1482 155.473C77.0644 155.694 76.9323 155.896 76.7608 156.065C76.5892 156.234 76.382 156.366 76.1528 156.453C75.6492 156.636 75.0925 156.636 74.589 156.453C74.3613 156.365 74.1554 156.232 73.9845 156.064C73.8131 155.892 73.68 155.688 73.5936 155.466C73.4083 154.972 73.4083 154.432 73.5936 153.939C73.6813 153.716 73.8141 153.512 73.9845 153.338C74.1568 153.175 74.3626 153.048 74.589 152.963C75.0919 152.777 75.6499 152.777 76.1528 152.963C76.3813 153.052 76.588 153.185 76.7598 153.353C76.9292 153.523 77.0612 153.724 77.1482 153.944C77.2435 154.189 77.2906 154.449 77.2871 154.711ZM76.747 154.711C76.751 154.503 76.718 154.296 76.6492 154.098C76.5916 153.929 76.4979 153.773 76.374 153.64C76.2534 153.514 76.1049 153.415 75.9393 153.351C75.5734 153.217 75.1684 153.217 74.8024 153.351C74.6368 153.415 74.4884 153.514 74.3678 153.64C74.2422 153.772 74.1475 153.928 74.09 154.098C73.9591 154.497 73.9591 154.925 74.09 155.324C74.148 155.493 74.2427 155.649 74.3678 155.782C74.4885 155.907 74.637 156.005 74.8024 156.069C75.169 156.199 75.5728 156.199 75.9393 156.069C76.1048 156.005 76.2533 155.907 76.374 155.782C76.4974 155.648 76.591 155.492 76.6492 155.324C76.7183 155.126 76.7513 154.919 76.747 154.711Z" fill="#2196F3"/>
<path d="M81.3408 155.353L81.3948 155.49C81.4154 155.441 81.4334 155.397 81.4539 155.353C81.4736 155.307 81.4959 155.262 81.5208 155.218L82.8352 152.942C82.8609 152.903 82.884 152.878 82.9098 152.871C82.9447 152.861 82.9813 152.857 83.0178 152.859H83.4062V156.561H82.9458V153.839C82.9458 153.805 82.9458 153.765 82.9458 153.724C82.9433 153.681 82.9433 153.639 82.9458 153.596L81.6237 155.905C81.6069 155.939 81.58 155.968 81.5463 155.989C81.5125 156.009 81.4733 156.02 81.4334 156.02H81.3588C81.3187 156.02 81.2794 156.01 81.2456 155.989C81.2118 155.969 81.185 155.939 81.1684 155.905L79.8078 153.582C79.8078 153.626 79.8078 153.67 79.8078 153.714C79.8078 153.758 79.8078 153.797 79.8078 153.831V156.554H79.3628V152.859H79.7512C79.7877 152.857 79.8243 152.861 79.8592 152.871C79.8911 152.886 79.9165 152.911 79.9312 152.942L81.2739 155.221C81.3003 155.263 81.3227 155.307 81.3408 155.353Z" fill="#2196F3"/>
<path d="M86.2871 155.169V156.556H85.7727V152.859H86.9199C87.1364 152.855 87.3524 152.882 87.5603 152.939C87.7268 152.984 87.8812 153.063 88.013 153.17C88.1273 153.27 88.2154 153.394 88.2703 153.532C88.331 153.683 88.3607 153.844 88.3577 154.005C88.36 154.167 88.3276 154.328 88.2625 154.478C88.2007 154.62 88.1057 154.747 87.9847 154.848C87.8528 154.96 87.6976 155.043 87.5295 155.093C87.3292 155.154 87.1198 155.183 86.9096 155.179L86.2871 155.169ZM86.2871 154.772H86.9096C87.0448 154.774 87.1794 154.755 87.3083 154.716C87.4146 154.682 87.5126 154.628 87.5964 154.557C87.6736 154.489 87.7335 154.405 87.7713 154.312C87.8134 154.213 87.8344 154.107 87.833 154C87.839 153.898 87.8214 153.795 87.7814 153.699C87.7414 153.604 87.68 153.517 87.6015 153.447C87.405 153.3 87.1582 153.23 86.9096 153.248H86.2871V154.772Z" fill="#2196F3"/>
<path d="M93.201 156.561H92.7946C92.7538 156.563 92.7138 156.551 92.6814 156.527C92.6522 156.504 92.6293 156.474 92.6145 156.441L92.2647 155.547H90.508L90.1453 156.441C90.132 156.474 90.1098 156.503 90.081 156.524C90.0483 156.549 90.0072 156.563 89.9652 156.561H89.5588L91.1021 152.858H91.6371L93.201 156.561ZM90.6546 155.186H92.1053L91.4931 153.679C91.4463 153.566 91.4076 153.449 91.3773 153.331L91.3182 153.525C91.3002 153.584 91.2796 153.637 91.2616 153.682L90.6546 155.186Z" fill="#2196F3"/>
<path d="M95.4233 152.875C95.4541 152.891 95.4805 152.914 95.5005 152.942L97.7511 155.733C97.7511 155.689 97.7511 155.645 97.7511 155.603C97.7511 155.561 97.7511 155.52 97.7511 155.48V152.858H98.2115V156.561H97.9543C97.9178 156.562 97.8816 156.555 97.8489 156.539C97.8171 156.521 97.7892 156.498 97.7666 156.471L95.5185 153.682C95.521 153.724 95.521 153.767 95.5185 153.809C95.5185 153.851 95.5185 153.888 95.5185 153.922V156.561H95.0581V152.858H95.3308C95.3626 152.857 95.3942 152.863 95.4233 152.875Z" fill="#2196F3"/>
<path d="M102.003 155.088V156.559H101.488V155.088L100.066 152.858H100.526C100.566 152.856 100.605 152.867 100.637 152.89C100.665 152.914 100.688 152.942 100.706 152.974L101.596 154.412C101.632 154.473 101.663 154.53 101.689 154.584C101.715 154.638 101.735 154.689 101.753 154.74L101.82 154.581C101.845 154.523 101.874 154.466 101.908 154.412L102.785 152.964C102.803 152.935 102.826 152.908 102.852 152.885C102.882 152.86 102.922 152.847 102.962 152.849H103.428L102.003 155.088Z" fill="#2196F3"/>
<path d="M81.0862 146.644C81.31 146.671 81.5363 146.693 81.7652 146.713C85.2358 145.234 88.1718 142.813 90.2062 139.753C92.2406 136.692 93.2832 133.129 93.2036 129.507L89.3788 125.863C90.1565 129.719 89.7927 133.705 88.3282 137.375C86.8636 141.045 84.3561 144.255 81.0862 146.644Z" fill="#2196F3"/>
<path d="M79.7205 146.475L79.8233 146.494C83.3176 144.113 85.9816 140.788 87.471 136.949C88.9604 133.11 89.2065 128.933 88.1777 124.959L82.7299 119.769C84.9333 124.035 85.8203 128.81 85.2876 133.537C84.7548 138.265 82.8243 142.751 79.7205 146.475Z" fill="#2196F3"/>
<path d="M98.1962 133.786C97.2706 137.765 95.0228 141.354 91.7864 144.02C90.8412 144.802 89.8217 145.5 88.741 146.103C91.3763 145.365 93.7986 144.06 95.821 142.289C97.8434 140.518 99.4119 138.328 100.406 135.889L98.1962 133.786Z" fill="#2196F3"/>
<path d="M97.3292 133.2L94.1835 130.203C94.1233 133.62 93.1037 136.959 91.2306 139.874C89.3575 142.788 86.6993 145.172 83.5322 146.776H83.5477C84.2534 146.776 84.9586 146.736 85.6594 146.656C88.6192 145.505 91.2339 143.674 93.2702 141.326C95.3064 138.978 96.7009 136.187 97.3292 133.2Z" fill="#2196F3"/>
<path d="M80.1757 117.58L76.4229 114C73.0681 115.235 70.1828 117.406 68.1446 120.23C66.1065 123.053 65.0105 126.397 65 129.823V129.823C65.0126 133.61 66.3502 137.284 68.8012 140.264C71.2521 143.245 74.6764 145.361 78.5321 146.279C81.974 142.284 83.9892 137.347 84.2847 132.186C84.5803 127.025 83.1409 121.909 80.1757 117.58Z" fill="#2196F3"/>
<path d="M106 132.649C105.986 128.157 104.107 123.852 100.773 120.676C97.4391 117.499 92.921 115.709 88.2059 115.696C86.0271 115.694 83.8668 116.077 81.8347 116.826L104.812 138.717C105.598 136.782 106.001 134.724 106 132.649Z" fill="#2196F3"/>
<rect x="0.5" y="0.5" width="169" height="89" rx="3.5" stroke="#AFB1B8"/>
<path d="M71.3454 65.7946C71.3604 65.795 71.3752 65.7982 71.3889 65.8041C71.4026 65.81 71.4149 65.8184 71.4251 65.8289L71.6309 66.0446C71.4712 66.2191 71.2738 66.3588 71.0522 66.4539C70.7927 66.5577 70.513 66.6078 70.2317 66.6009C69.9673 66.6061 69.7046 66.5594 69.46 66.4637C69.2394 66.3758 69.0412 66.2437 68.8787 66.0764C68.713 65.9029 68.5853 65.6996 68.5032 65.4784C68.4133 65.2318 68.3689 64.9723 68.372 64.7113C68.3684 64.4486 68.4164 64.1875 68.5135 63.9417C68.6033 63.7191 68.7389 63.5158 68.9122 63.3436C69.0878 63.1749 69.2979 63.0423 69.5295 62.9539C69.7828 62.8604 70.0526 62.8138 70.3243 62.8167C70.5766 62.8108 70.8277 62.8534 71.0625 62.9417C71.2662 63.0259 71.4532 63.1428 71.6155 63.2873L71.4432 63.5177C71.4312 63.5339 71.4164 63.548 71.3994 63.5593C71.3791 63.5726 71.3545 63.5787 71.33 63.5765C71.3033 63.5747 71.2775 63.5663 71.2554 63.552L71.1628 63.4907L71.0342 63.4123C70.9787 63.3832 70.9211 63.3578 70.8619 63.3363C70.7856 63.3103 70.7073 63.2898 70.6278 63.275C70.5268 63.2573 70.4243 63.2491 70.3217 63.2505C70.1261 63.2482 69.9319 63.2832 69.7507 63.3534C69.5817 63.4185 69.4291 63.5171 69.3031 63.6427C69.1749 63.7762 69.076 63.9329 69.0125 64.1034C68.94 64.2985 68.9043 64.5043 68.907 64.7113C68.9039 64.9214 68.9396 65.1305 69.0125 65.3289C69.0752 65.498 69.1723 65.6537 69.298 65.7872C69.4158 65.9117 69.5618 66.0089 69.725 66.0715C69.8929 66.1379 70.0731 66.1712 70.2548 66.1696C70.3598 66.1711 70.4648 66.1646 70.5686 66.15C70.7382 66.1302 70.9009 66.0741 71.0445 65.9858C71.1165 65.9405 71.1844 65.8897 71.2477 65.8338C71.2741 65.8098 71.3089 65.7958 71.3454 65.7946V65.7946Z" fill="#AFB1B8"/>
<path d="M77.2871 64.7108C77.2903 64.9709 77.2432 65.2292 77.1482 65.473C77.0644 65.6941 76.9323 65.8958 76.7608 66.0648C76.5892 66.2338 76.382 66.3662 76.1528 66.4533C75.6492 66.6363 75.0925 66.6363 74.589 66.4533C74.3613 66.3648 74.1554 66.2321 73.9845 66.0636C73.8131 65.8916 73.68 65.6882 73.5936 65.4657C73.4083 64.972 73.4083 64.4325 73.5936 63.9388C73.6813 63.7162 73.8141 63.5122 73.9845 63.3384C74.1568 63.1752 74.3626 63.0476 74.589 62.9635C75.0919 62.7772 75.6499 62.7772 76.1528 62.9635C76.3813 63.0519 76.588 63.1846 76.7598 63.3531C76.9292 63.5235 77.0612 63.7243 77.1482 63.9437C77.2435 64.1892 77.2906 64.4492 77.2871 64.7108ZM76.747 64.7108C76.751 64.5028 76.718 64.2956 76.6492 64.0981C76.5916 63.929 76.4979 63.7729 76.374 63.6399C76.2534 63.5139 76.1049 63.4152 75.9393 63.3507C75.5734 63.2167 75.1684 63.2167 74.8024 63.3507C74.6368 63.4152 74.4884 63.5139 74.3678 63.6399C74.2422 63.7722 74.1475 63.9284 74.09 64.0981C73.9591 64.4971 73.9591 64.9246 74.09 65.3235C74.148 65.4931 74.2427 65.6492 74.3678 65.7818C74.4885 65.907 74.637 66.0049 74.8024 66.0685C75.169 66.1991 75.5728 66.1991 75.9393 66.0685C76.1048 66.0049 76.2533 65.907 76.374 65.7818C76.4974 65.6484 76.591 65.4925 76.6492 65.3235C76.7183 65.1261 76.7513 64.9189 76.747 64.7108V64.7108Z" fill="#AFB1B8"/>
<path d="M81.3408 65.3532L81.3948 65.4904C81.4154 65.4414 81.4334 65.3973 81.4539 65.3532C81.4736 65.3071 81.4959 65.2621 81.5208 65.2184L82.8352 62.942C82.8609 62.9028 82.884 62.8783 82.9098 62.8709C82.9447 62.8608 82.9813 62.8566 83.0178 62.8587H83.4062V66.5613H82.9458V63.8388C82.9458 63.8045 82.9458 63.7653 82.9458 63.7237C82.9433 63.6812 82.9433 63.6387 82.9458 63.5962L81.6237 65.9046C81.6069 65.9391 81.58 65.9684 81.5463 65.9888C81.5125 66.0092 81.4733 66.02 81.4334 66.0197H81.3588C81.3187 66.0203 81.2794 66.0097 81.2456 65.9892C81.2118 65.9687 81.185 65.9393 81.1684 65.9046L79.8078 63.5815C79.8078 63.6256 79.8078 63.6698 79.8078 63.7139C79.8078 63.758 79.8078 63.7972 79.8078 63.8315V66.5539H79.3628V62.8587H79.7512C79.7877 62.8566 79.8243 62.8608 79.8592 62.8709C79.8911 62.886 79.9165 62.9111 79.9312 62.942L81.2739 65.2209C81.3003 65.263 81.3227 65.3073 81.3408 65.3532V65.3532Z" fill="#AFB1B8"/>
<path d="M86.2871 65.1692V66.5562H85.7727V62.8585H86.9199C87.1364 62.8546 87.3524 62.8818 87.5603 62.9394C87.7268 62.9843 87.8812 63.0629 88.013 63.1697C88.1273 63.2699 88.2154 63.394 88.2703 63.5324C88.331 63.6832 88.3607 63.8438 88.3577 64.0053C88.36 64.1675 88.3276 64.3284 88.2625 64.4782C88.2007 64.6201 88.1057 64.7466 87.9847 64.8482C87.8528 64.9595 87.6976 65.043 87.5295 65.0933C87.3292 65.1542 87.1198 65.1832 86.9096 65.179L86.2871 65.1692ZM86.2871 64.7723H86.9096C87.0448 64.7739 87.1794 64.7549 87.3083 64.7159C87.4146 64.6818 87.5126 64.6277 87.5964 64.5566C87.6736 64.4888 87.7335 64.405 87.7713 64.3116C87.8134 64.2128 87.8344 64.107 87.833 64.0004C87.839 63.8976 87.8214 63.7948 87.7814 63.6992C87.7414 63.6035 87.68 63.5174 87.6015 63.4466C87.405 63.3004 87.1582 63.2296 86.9096 63.2481H86.2871V64.7723Z" fill="#AFB1B8"/>
<path d="M93.201 66.5612H92.7946C92.7538 66.5626 92.7138 66.5505 92.6814 66.5268C92.6522 66.5038 92.6293 66.4744 92.6145 66.4411L92.2647 65.5466H90.508L90.1453 66.4411C90.132 66.4738 90.1098 66.5025 90.081 66.5244C90.0483 66.5495 90.0072 66.5625 89.9652 66.5612H89.5588L91.1021 62.8582H91.6371L93.201 66.5612ZM90.6546 65.1863H92.1053L91.4931 63.6791C91.4463 63.5658 91.4076 63.4495 91.3773 63.3311L91.3182 63.5247C91.3002 63.5836 91.2796 63.6375 91.2616 63.6816L90.6546 65.1863Z" fill="#AFB1B8"/>
<path d="M95.4233 62.8754C95.4541 62.8915 95.4805 62.9141 95.5005 62.9416L97.7511 65.7329C97.7511 65.6887 97.7511 65.6446 97.7511 65.603C97.7511 65.5613 97.7511 65.5197 97.7511 65.4804V62.8582H98.2115V66.5612H97.9543C97.9178 66.5622 97.8816 66.5547 97.8489 66.5391C97.8171 66.5215 97.7892 66.4982 97.7666 66.4705L95.5185 63.6817C95.521 63.7241 95.521 63.7666 95.5185 63.8091C95.5185 63.8508 95.5185 63.8875 95.5185 63.9218V66.5612H95.0581V62.8582H95.3308C95.3626 62.8574 95.3942 62.8632 95.4233 62.8754V62.8754Z" fill="#AFB1B8"/>
<path d="M102.003 65.0884V66.5588H101.488V65.0884L100.066 62.8584H100.526C100.566 62.8561 100.605 62.8674 100.637 62.8902C100.665 62.914 100.688 62.9422 100.706 62.9735L101.596 64.4121C101.632 64.4733 101.663 64.5297 101.689 64.5836C101.715 64.6375 101.735 64.689 101.753 64.7405L101.82 64.5812C101.845 64.5229 101.874 64.4664 101.908 64.4121L102.785 62.9637C102.803 62.9348 102.826 62.9084 102.852 62.8853C102.882 62.8599 102.922 62.8467 102.962 62.8486H103.428L102.003 65.0884Z" fill="#AFB1B8"/>
<path d="M81.0862 56.6443C81.31 56.6712 81.5363 56.6933 81.7652 56.7129C85.2358 55.2337 88.1718 52.8127 90.2062 49.7526C92.2406 46.6924 93.2832 43.1289 93.2036 39.5073L89.3788 35.8633C90.1565 39.7191 89.7927 43.705 88.3282 47.3751C86.8636 51.0452 84.3561 54.2546 81.0862 56.6443V56.6443Z" fill="#AFB1B8"/>
<path d="M79.7205 56.4748L79.8233 56.4944C83.3176 54.1132 85.9816 50.788 87.471 46.9488C88.9604 43.1097 89.2065 38.9331 88.1777 34.9592L82.7299 29.769C84.9333 34.0353 85.8203 38.8098 85.2876 43.5374C84.7548 48.265 82.8243 52.7514 79.7205 56.4748V56.4748Z" fill="#AFB1B8"/>
<path d="M98.1962 43.7861C97.2706 47.7654 95.0228 51.3541 91.7864 54.0196C90.8412 54.8023 89.8217 55.4996 88.741 56.1025C91.3763 55.3646 93.7986 54.0598 95.821 52.289C97.8434 50.5181 99.4119 48.3284 100.406 45.8887L98.1962 43.7861Z" fill="#AFB1B8"/>
<path d="M97.3292 43.2002L94.1835 40.2031C94.1233 43.6201 93.1037 46.9594 91.2306 49.8739C89.3575 52.7885 86.6993 55.1718 83.5322 56.7764H83.5477C84.2534 56.7761 84.9586 56.736 85.6594 56.6563C88.6192 55.5053 91.2339 53.6742 93.2702 51.3262C95.3064 48.9782 96.7009 46.1865 97.3292 43.2002V43.2002Z" fill="#AFB1B8"/>
<path d="M80.1757 27.5803L76.4229 24C73.0681 25.2351 70.1828 27.4064 68.1446 30.2297C66.1065 33.053 65.0105 36.3968 65 39.8234V39.8234C65.0126 43.6097 66.3502 47.2838 68.8012 50.2643C71.2521 53.2448 74.6764 55.3614 78.5321 56.2791C81.974 52.2838 83.9892 47.347 84.2847 42.186C84.5803 37.025 83.1409 31.9086 80.1757 27.5803V27.5803Z" fill="#AFB1B8"/>
<path d="M106 42.649C105.986 38.1568 104.107 33.8522 100.773 30.6757C97.4391 27.4992 92.921 25.709 88.2059 25.6961V25.6961C86.0271 25.6939 83.8668 26.077 81.8347 26.8258L104.812 48.7166C105.598 46.7815 106.001 44.7241 106 42.649V42.649Z" fill="#AFB1B8"/>
</svg>
