<svg width="170" height="180" viewBox="0 0 170 180" fill="none" xmlns="http://www.w3.org/2000/svg">
<rect x="0.5" y="90.5" width="169" height="89" rx="3.5" stroke="#2196F3"/>
<path d="M85.7404 133.353C85.3224 132.743 85.1225 132.022 85.1699 131.296V128.314C85.1699 127.399 85.359 126.704 85.7372 126.229C86.1154 125.754 86.7649 125.517 87.6858 125.519C88.5512 125.519 89.1654 125.721 89.5287 126.126C89.9249 126.642 90.1176 127.273 90.0735 127.91V128.611H88.5255V127.901C88.531 127.669 88.516 127.436 88.4807 127.206C88.4584 127.049 88.3804 126.903 88.2595 126.793C88.1006 126.675 87.9003 126.618 87.6987 126.633C87.4866 126.618 87.2762 126.678 87.1089 126.803C86.9741 126.924 86.8842 127.084 86.8525 127.258C86.8081 127.501 86.7878 127.748 86.7916 127.995V131.615C86.7672 131.964 86.8355 132.313 86.9904 132.631C87.0673 132.739 87.1743 132.824 87.2993 132.878C87.4243 132.931 87.5625 132.951 87.6987 132.935C87.897 132.95 88.0937 132.891 88.2467 132.771C88.3728 132.652 88.454 132.498 88.4775 132.331C88.5136 132.091 88.5297 131.848 88.5255 131.606V130.871H90.0735V131.542C90.117 132.206 89.9289 132.864 89.5383 133.417C89.1825 133.86 88.5768 134.082 87.6858 134.082C86.7949 134.082 86.1218 133.845 85.7404 133.353Z" fill="#2196F3"/>
<path d="M92.1856 133.384C91.7946 132.919 91.5991 132.243 91.5991 131.348V128.21C91.5991 127.324 91.7946 126.654 92.1856 126.199C92.5766 125.744 93.2304 125.517 94.147 125.519C95.0572 125.519 95.7078 125.746 96.0988 126.199C96.4898 126.654 96.6885 127.324 96.6885 128.21V131.348C96.6885 132.234 96.4898 132.913 96.0924 133.381C95.695 133.848 95.0476 134.082 94.147 134.082C93.2464 134.082 92.5798 133.845 92.1856 133.384ZM94.8681 132.631C95.0081 132.34 95.0719 132.022 95.054 131.703V127.861C95.072 127.548 95.0093 127.236 94.8713 126.951C94.7928 126.841 94.6832 126.755 94.5551 126.701C94.4271 126.647 94.2856 126.629 94.147 126.648C94.0079 126.629 93.8662 126.648 93.7377 126.702C93.6093 126.755 93.4991 126.842 93.4195 126.951C93.2786 127.235 93.2147 127.548 93.2336 127.861V131.721C93.2141 132.04 93.278 132.359 93.4195 132.649C93.5097 132.747 93.6211 132.826 93.746 132.879C93.8709 132.933 94.0066 132.961 94.1438 132.961C94.281 132.961 94.4167 132.933 94.5416 132.879C94.6665 132.826 94.7779 132.747 94.8681 132.649V132.631Z" fill="#2196F3"/>
<path d="M98.5505 125.611H100.217L101.47 131.399L102.752 125.611H104.374L104.537 133.966H103.339L103.211 128.159L101.973 133.966H101.012L99.7299 128.138L99.6114 133.966H98.3999L98.5505 125.611Z" fill="#2196F3"/>
<path d="M106.406 125.611H109.002C110.497 125.611 111.245 126.401 111.245 127.983C111.245 129.498 110.458 130.254 108.883 130.252H107.999V133.966H106.396L106.406 125.611ZM108.624 129.181C108.782 129.2 108.943 129.187 109.095 129.141C109.247 129.096 109.387 129.019 109.505 128.917C109.689 128.635 109.77 128.304 109.736 127.974C109.744 127.719 109.718 127.464 109.659 127.216C109.636 127.132 109.596 127.054 109.541 126.986C109.486 126.918 109.417 126.861 109.338 126.818C109.116 126.717 108.87 126.671 108.624 126.685H108.002V129.181H108.624Z" fill="#2196F3"/>
<path d="M113.556 125.611H115.277L117.043 133.966H115.549L115.2 132.039H113.665L113.306 133.966H111.79L113.556 125.611ZM115.027 131.072L114.428 127.564L113.828 131.072H115.027Z" fill="#2196F3"/>
<path d="M118.469 125.611H119.591L121.738 130.377V125.611H123.068V133.966H122.001L119.841 128.99V133.966H118.466L118.469 125.611Z" fill="#2196F3"/>
<path d="M126.184 130.78L124.398 125.622H125.902L126.991 128.935L128.014 125.622H129.485L127.722 130.78V133.966H126.184V130.78Z" fill="#2196F3"/>
<path d="M88.2148 137.619V138.056H86.9072V141.451H86.3592V138.056H85.0452V137.619H88.2148Z" fill="#2196F3"/>
<path d="M92.3138 141.451H91.8908C91.8478 141.454 91.8054 141.441 91.7722 141.415C91.7402 141.393 91.7157 141.362 91.7017 141.327L91.3235 140.417H89.5095L89.1313 141.327C89.1206 141.365 89.1008 141.4 89.0736 141.43C89.0401 141.455 88.9979 141.468 88.955 141.466H88.532L90.1345 137.635H90.6921L92.3138 141.451ZM89.6601 140.028H91.1729L90.5319 138.469C90.4846 138.351 90.445 138.23 90.4133 138.108C90.3909 138.181 90.3716 138.25 90.3524 138.311L90.2947 138.472L89.6601 140.028Z" fill="#2196F3"/>
<path d="M95.0766 141.075C95.177 141.08 95.2775 141.08 95.3779 141.075C95.4645 141.066 95.5503 141.051 95.6343 141.029C95.7128 141.011 95.7899 140.988 95.865 140.96C95.9356 140.932 96.0061 140.899 96.0798 140.865V140.004H95.4388C95.4229 140.005 95.4071 140.002 95.3922 139.997C95.3773 139.992 95.3637 139.984 95.3523 139.973C95.3417 139.965 95.3334 139.954 95.3279 139.942C95.3223 139.93 95.3197 139.917 95.3202 139.904V139.609H96.5637V141.078C96.4622 141.147 96.355 141.207 96.2432 141.26C96.129 141.313 96.0099 141.357 95.8875 141.39C95.7564 141.427 95.6224 141.453 95.4869 141.469C95.3315 141.486 95.1753 141.494 95.0189 141.494C94.7425 141.496 94.4683 141.447 94.2113 141.351C93.9714 141.26 93.7534 141.123 93.5703 140.95C93.3919 140.776 93.2514 140.57 93.1569 140.344C93.0559 140.09 93.0059 139.82 93.0095 139.549C93.0061 139.275 93.055 139.004 93.1537 138.748C93.2459 138.52 93.3866 138.314 93.5671 138.141C93.75 137.968 93.9681 137.833 94.2081 137.743C94.4825 137.645 94.7738 137.597 95.067 137.601C95.2162 137.6 95.3652 137.612 95.5125 137.634C95.6428 137.654 95.7706 137.687 95.8939 137.731C96.006 137.771 96.1134 137.822 96.2144 137.883C96.3126 137.943 96.4058 138.01 96.4932 138.083L96.3394 138.32C96.3273 138.341 96.3094 138.359 96.2874 138.372C96.2654 138.385 96.2402 138.392 96.2144 138.392C96.1789 138.391 96.1445 138.381 96.115 138.362C96.067 138.338 96.0157 138.308 95.958 138.271C95.8898 138.231 95.818 138.196 95.7433 138.168C95.6477 138.132 95.5491 138.103 95.4484 138.083C95.3142 138.06 95.1779 138.048 95.0414 138.05C94.8299 138.047 94.62 138.083 94.4228 138.156C94.2445 138.224 94.0838 138.327 93.9517 138.459C93.8189 138.597 93.7174 138.759 93.6536 138.936C93.5105 139.351 93.5105 139.798 93.6536 140.213C93.7238 140.393 93.833 140.558 93.9741 140.696C94.1056 140.827 94.2651 140.93 94.4421 140.999C94.6458 141.065 94.8619 141.091 95.0766 141.075Z" fill="#2196F3"/>
<path d="M100.185 141.014H101.935V141.451H99.6499V137.619H100.198L100.185 141.014Z" fill="#2196F3"/>
<path d="M103.756 141.451H103.208V137.619H103.756V141.451Z" fill="#2196F3"/>
<path d="M105.794 137.637C105.826 137.655 105.855 137.678 105.877 137.707L108.22 140.596C108.217 140.55 108.217 140.504 108.22 140.459C108.22 140.417 108.22 140.374 108.22 140.335V137.604H108.698V141.451H108.422C108.381 141.454 108.34 141.447 108.303 141.43C108.27 141.411 108.241 141.386 108.217 141.357L105.877 138.472C105.877 138.517 105.877 138.56 105.877 138.602C105.877 138.645 105.877 138.684 105.877 138.72V141.451H105.419V137.619H105.704C105.735 137.619 105.766 137.625 105.794 137.637Z" fill="#2196F3"/>
<path d="M112.732 137.619V138.041H110.79V139.306H112.364V139.712H110.79V141.02H112.732V141.442H110.226V137.619H112.732Z" fill="#2196F3"/>
<path d="M55.3035 113.954L79.6385 120.495V143.417L55.3035 136.879V113.954ZM53.7427 112V137.992L81.196 145.374V119.385L53.7427 112Z" fill="#2196F3"/>
<path d="M68.4565 157.44L41 150.052V124.062L68.4565 131.447V157.44Z" fill="#2196F3"/>
<path d="M54.1978 113.66L78.2155 120.119L68.0014 129.791L43.9806 123.329L54.1978 113.66ZM53.7427 112L41 124.063L68.4565 131.448L81.196 119.385L53.7427 112Z" fill="#2196F3"/>
<path d="M70.0015 155.978L81.1962 145.377L70.0015 142.365V155.978Z" fill="#2196F3"/>
<rect x="0.5" y="0.5" width="169" height="89" rx="3.5" stroke="#AFB1B8"/>
<path d="M85.7404 43.3533C85.3224 42.7431 85.1225 42.022 85.1699 41.2962V38.3135C85.1699 37.3992 85.359 36.7044 85.7372 36.2291C86.1154 35.7537 86.7649 35.517 87.6858 35.5191C88.5512 35.5191 89.1654 35.7213 89.5287 36.1259C89.9249 36.6421 90.1176 37.2733 90.0735 37.91V38.6109H88.5255V37.9009C88.531 37.6685 88.516 37.4361 88.4807 37.2061C88.4584 37.0488 88.3804 36.9033 88.2595 36.7934C88.1006 36.675 87.9003 36.6175 87.6987 36.6326C87.4866 36.6176 87.2762 36.6782 87.1089 36.8025C86.9741 36.9243 86.8842 37.0838 86.8525 37.2576C86.8081 37.5011 86.7878 37.7479 86.7916 37.995V41.6147C86.7672 41.964 86.8355 42.3134 86.9904 42.6312C87.0673 42.7387 87.1743 42.824 87.2993 42.8775C87.4243 42.9311 87.5625 42.9508 87.6987 42.9346C87.897 42.9501 88.0937 42.8912 88.2467 42.7708C88.3728 42.6523 88.454 42.4976 88.4775 42.3308C88.5136 42.0907 88.5297 41.8482 88.5255 41.6056V40.8714H90.0735V41.5419C90.117 42.2056 89.9289 42.8644 89.5383 43.4171C89.1825 43.86 88.5768 44.0815 87.6858 44.0815C86.7949 44.0815 86.1218 43.8449 85.7404 43.3533Z" fill="#AFB1B8"/>
<path d="M92.1856 43.3837C91.7946 42.9194 91.5991 42.2428 91.5991 41.3477V38.2104C91.5991 37.3244 91.7946 36.6538 92.1856 36.1987C92.5766 35.7436 93.2304 35.517 94.147 35.5191C95.0572 35.5191 95.7078 35.7456 96.0988 36.1987C96.4898 36.6538 96.6885 37.3244 96.6885 38.2104V41.3477C96.6885 42.2337 96.4898 42.9134 96.0924 43.3806C95.695 43.8479 95.0476 44.0815 94.147 44.0815C93.2464 44.0815 92.5798 43.8449 92.1856 43.3837ZM94.8681 42.6312C95.0081 42.3404 95.0719 42.0219 95.054 41.7027V37.8615C95.072 37.5485 95.0093 37.2361 94.8713 36.9512C94.7928 36.8414 94.6832 36.7547 94.5551 36.7011C94.4271 36.6474 94.2856 36.629 94.147 36.6478C94.0079 36.6294 93.8662 36.6481 93.7377 36.7017C93.6093 36.7553 93.4991 36.8417 93.4195 36.9512C93.2786 37.2353 93.2147 37.5481 93.2336 37.8615V41.7209C93.2141 42.0402 93.278 42.3591 93.4195 42.6494C93.5097 42.7473 93.6211 42.8257 93.746 42.8795C93.8709 42.9332 94.0066 42.961 94.1438 42.961C94.281 42.961 94.4167 42.9332 94.5416 42.8795C94.6665 42.8257 94.7779 42.7473 94.8681 42.6494V42.6312Z" fill="#AFB1B8"/>
<path d="M98.5505 35.6106H100.217L101.47 41.3992L102.752 35.6106H104.374L104.537 43.9658H103.339L103.211 38.159L101.973 43.9658H101.012L99.7299 38.1378L99.6114 43.9658H98.3999L98.5505 35.6106Z" fill="#AFB1B8"/>
<path d="M106.406 35.6106H109.002C110.497 35.6106 111.245 36.4014 111.245 37.9831C111.245 39.498 110.458 40.2544 108.883 40.2524H107.999V43.9658H106.396L106.406 35.6106ZM108.624 39.1814C108.782 39.2005 108.943 39.1867 109.095 39.1411C109.247 39.0956 109.387 39.0193 109.505 38.9175C109.689 38.6353 109.77 38.3039 109.736 37.974C109.744 37.7191 109.718 37.4642 109.659 37.2155C109.636 37.1324 109.596 37.0545 109.541 36.9863C109.486 36.918 109.417 36.8608 109.338 36.8181C109.116 36.7171 108.87 36.6711 108.624 36.6846H108.002V39.1814H108.624Z" fill="#AFB1B8"/>
<path d="M113.556 35.6106H115.277L117.043 43.9658H115.549L115.2 42.0393H113.665L113.306 43.9658H111.79L113.556 35.6106ZM115.027 41.0715L114.428 37.5644L113.828 41.0715H115.027Z" fill="#AFB1B8"/>
<path d="M118.469 35.6106H119.591L121.738 40.3768V35.6106H123.068V43.9658H122.001L119.841 38.9903V43.9658H118.466L118.469 35.6106Z" fill="#AFB1B8"/>
<path d="M126.184 40.7801L124.398 35.6223H125.902L126.991 38.9354L128.014 35.6223H129.485L127.722 40.7801V43.9658H126.184V40.7801Z" fill="#AFB1B8"/>
<path d="M88.2148 47.6189V48.0558H86.9072V51.4509H86.3592V48.0558H85.0452V47.6189H88.2148Z" fill="#AFB1B8"/>
<path d="M92.3138 51.4512H91.8908C91.8478 51.4537 91.8054 51.4407 91.7722 51.4148C91.7402 51.3925 91.7157 51.362 91.7017 51.3268L91.3235 50.4166H89.5095L89.1313 51.3268C89.1206 51.3649 89.1008 51.4001 89.0736 51.43C89.0401 51.4554 88.9979 51.4683 88.955 51.4664H88.532L90.1345 47.6345H90.6921L92.3138 51.4512ZM89.6601 50.0283H91.1729L90.5319 48.4688C90.4846 48.3509 90.445 48.2303 90.4133 48.1078C90.3909 48.1806 90.3716 48.2504 90.3524 48.3111L90.2947 48.4719L89.6601 50.0283Z" fill="#AFB1B8"/>
<path d="M95.0766 51.0748C95.177 51.0798 95.2775 51.0798 95.3779 51.0748C95.4645 51.0664 95.5503 51.0512 95.6343 51.0293C95.7128 51.0111 95.7899 50.9878 95.865 50.9595C95.9356 50.9322 96.0061 50.8988 96.0798 50.8655V50.0037H95.4388C95.4229 50.0046 95.4071 50.0023 95.3922 49.9971C95.3773 49.9919 95.3637 49.9838 95.3523 49.9734C95.3417 49.9648 95.3334 49.954 95.3279 49.9419C95.3223 49.9299 95.3197 49.9167 95.3202 49.9036V49.6093H96.5637V51.0779C96.4622 51.1466 96.355 51.2075 96.2432 51.2599C96.129 51.3133 96.0099 51.357 95.8875 51.3904C95.7564 51.4269 95.6224 51.4533 95.4869 51.4693C95.3315 51.4856 95.1753 51.4937 95.0189 51.4936C94.7425 51.4958 94.4683 51.4473 94.2113 51.351C93.9714 51.2596 93.7534 51.1234 93.5703 50.9504C93.3919 50.7757 93.2514 50.5695 93.1569 50.3436C93.0559 50.0896 93.0059 49.8199 93.0095 49.5486C93.0061 49.2755 93.055 49.0041 93.1537 48.7475C93.2459 48.5204 93.3866 48.3138 93.5671 48.1406C93.75 47.9682 93.9681 47.833 94.2081 47.7431C94.4825 47.6454 94.7738 47.597 95.067 47.6005C95.2162 47.6003 95.3652 47.6115 95.5125 47.6339C95.6428 47.654 95.7706 47.6865 95.8939 47.731C96.006 47.7709 96.1134 47.8217 96.2144 47.8827C96.3126 47.9426 96.4058 48.0095 96.4932 48.083L96.3394 48.3197C96.3273 48.3413 96.3094 48.3594 96.2874 48.3722C96.2654 48.3851 96.2402 48.392 96.2144 48.3925C96.1789 48.3914 96.1445 48.3809 96.115 48.3621C96.067 48.3379 96.0157 48.3075 95.958 48.2711C95.8898 48.2307 95.818 48.1961 95.7433 48.1679C95.6477 48.1317 95.5491 48.1032 95.4484 48.083C95.3142 48.0596 95.1779 48.0484 95.0414 48.0496C94.8299 48.0474 94.62 48.0834 94.4228 48.1558C94.2445 48.2235 94.0838 48.3271 93.9517 48.4592C93.8189 48.597 93.7174 48.7592 93.6536 48.9356C93.5105 49.3507 93.5105 49.7981 93.6536 50.2131C93.7238 50.3933 93.833 50.5576 93.9741 50.6955C94.1056 50.827 94.2651 50.9304 94.4421 50.999C94.6458 51.0652 94.8619 51.091 95.0766 51.0748V51.0748Z" fill="#AFB1B8"/>
<path d="M100.185 51.014H101.935V51.4509H99.6499V47.6189H100.198L100.185 51.014Z" fill="#AFB1B8"/>
<path d="M103.756 51.4509H103.208V47.6189H103.756V51.4509Z" fill="#AFB1B8"/>
<path d="M105.794 47.6371C105.826 47.6547 105.855 47.6785 105.877 47.7069L108.22 50.5955C108.217 50.5501 108.217 50.5045 108.22 50.459C108.22 50.4165 108.22 50.374 108.22 50.3346V47.6038H108.698V51.4512H108.422C108.381 51.4543 108.34 51.447 108.303 51.43C108.27 51.4109 108.241 51.3862 108.217 51.3571L105.877 48.4716C105.877 48.5171 105.877 48.5595 105.877 48.602C105.877 48.6445 105.877 48.684 105.877 48.7204V51.4512H105.419V47.6189H105.704C105.735 47.619 105.766 47.6252 105.794 47.6371V47.6371Z" fill="#AFB1B8"/>
<path d="M112.732 47.6189V48.0406H110.79V49.3059H112.364V49.7124H110.79V51.0202H112.732V51.4419H110.226V47.6189H112.732Z" fill="#AFB1B8"/>
<path d="M55.3035 23.9539L79.6385 30.4953V53.4173L55.3035 46.879V23.9539ZM53.7427 22V47.9925L81.196 55.3743V29.3848L53.7427 22Z" fill="#AFB1B8"/>
<path d="M68.4565 67.4402L41 60.0522V34.0625L68.4565 41.4474V67.4402Z" fill="#AFB1B8"/>
<path d="M54.1978 23.6596L78.2155 30.1189L68.0014 39.7912L43.9806 33.3288L54.1978 23.6596ZM53.7427 22L41 34.0631L68.4565 41.4478L81.196 29.3847L53.7427 22Z" fill="#AFB1B8"/>
<path d="M70.0015 65.978L81.1962 55.3774L70.0015 52.3647V65.978Z" fill="#AFB1B8"/>
</svg>
