<svg width="45" height="88" viewBox="0 0 45 88" fill="none" xmlns="http://www.w3.org/2000/svg">
<path d="M44 66C44 72.0751 41.5376 77.5751 37.5564 81.5564C33.5751 85.5376 28.0751 88 22 88C15.9249 88 10.4249 85.5376 6.44365 81.5564C2.46243 77.5751 0 72.0751 0 66C0 59.9249 2.46243 54.4249 6.44365 50.4437C10.4249 46.4624 15.9249 44 22 44C28.0751 44 33.5751 46.4624 37.5564 50.4437C41.5376 54.4249 44 59.9249 44 66Z" fill="#2196F3"/>
<g clip-path="url(#clip0)">
<path d="M25.3308 59.3208H27.1566V56.1408C26.8416 56.0975 25.7583 56 24.4966 56C21.8641 56 20.0608 57.6558 20.0608 60.6992V63.5H17.1558V67.055H20.0608V76H23.6224V67.0558H26.4099L26.8524 63.5008H23.6216V61.0517C23.6224 60.0242 23.8991 59.3208 25.3308 59.3208Z" fill="white"/>
</g>
<g clip-path="url(#clip1)">
<path d="M26.3308 15.3208H28.1566V12.1408C27.8416 12.0975 26.7583 12 25.4966 12C22.8641 12 21.0608 13.6558 21.0608 16.6992V19.5H18.1558V23.055H21.0608V32H24.6224V23.0558H27.4099L27.8524 19.5008H24.6216V17.0517C24.6224 16.0242 24.8991 15.3208 26.3308 15.3208V15.3208Z" fill="#AFB1B8"/>
</g>
<defs>
<clipPath id="clip0">
<rect width="20" height="20" fill="white" transform="translate(12 56)"/>
</clipPath>
<clipPath id="clip1">
<rect width="20" height="20" fill="white" transform="translate(13 12)"/>
</clipPath>
</defs>
</svg>
