<svg width="44" height="88" viewBox="0 0 44 88" fill="none" xmlns="http://www.w3.org/2000/svg">
<path d="M44 66C44 72.0751 41.5376 77.5751 37.5564 81.5564C33.5751 85.5376 28.0751 88 22 88C15.9249 88 10.4249 85.5376 6.44365 81.5564C2.46243 77.5751 0 72.0751 0 66C0 59.9249 2.46243 54.4249 6.44365 50.4437C10.4249 46.4624 15.9249 44 22 44C28.0751 44 33.5751 46.4624 37.5564 50.4437C41.5376 54.4249 44 59.9249 44 66Z" fill="#2196F3"/>
<g clip-path="url(#clip0)">
<path d="M31.9804 61.8801C31.9336 60.8174 31.7617 60.0868 31.5156 59.4537C31.2616 58.7818 30.8709 58.1801 30.359 57.68C29.8589 57.1721 29.2533 56.7774 28.5891 56.5274C27.9524 56.2813 27.2256 56.1094 26.163 56.0626C25.0924 56.0118 24.7525 56 22.0371 56C19.3217 56 18.9818 56.0118 17.9152 56.0586C16.8525 56.1055 16.1219 56.2775 15.489 56.5235C14.8169 56.7774 14.2153 57.1681 13.7152 57.68C13.2073 58.1801 12.8127 58.7857 12.5626 59.4499C12.3164 60.0868 12.1446 60.8134 12.0977 61.8761C12.0469 62.9467 12.0352 63.2866 12.0352 66.002C12.0352 68.7173 12.0469 69.0572 12.0938 70.1239C12.1406 71.1865 12.3126 71.9171 12.5588 72.5502C12.8127 73.2221 13.2073 73.8238 13.7152 74.3239C14.2153 74.8318 14.8209 75.2265 15.4851 75.4765C16.1219 75.7226 16.8486 75.8945 17.9114 75.9413C18.9779 75.9883 19.3179 75.9999 22.0333 75.9999C24.7487 75.9999 25.0885 75.9883 26.1552 75.9413C27.2179 75.8945 27.9484 75.7226 28.5813 75.4765C29.9254 74.9568 30.9881 73.8941 31.5078 72.5502C31.7538 71.9133 31.9258 71.1865 31.9727 70.1239C32.0195 69.0572 32.0313 68.7173 32.0313 66.002C32.0313 63.2866 32.0273 62.9467 31.9804 61.8801ZM30.1794 70.0457C30.1364 71.0225 29.9723 71.5499 29.8356 71.9015C29.4995 72.7728 28.808 73.4643 27.9367 73.8004C27.5851 73.9372 27.0538 74.1012 26.0809 74.1441C25.026 74.1911 24.7096 74.2027 22.0411 74.2027C19.3726 74.2027 19.0522 74.1911 18.0011 74.1441C17.0244 74.1012 16.4969 73.9372 16.1453 73.8004C15.7117 73.6402 15.317 73.3862 14.9967 73.0541C14.6646 72.7298 14.4106 72.3391 14.2504 71.9055C14.1137 71.5539 13.9496 71.0225 13.9067 70.0497C13.8597 68.9948 13.8481 68.6783 13.8481 66.0097C13.8481 63.3412 13.8597 63.0209 13.9067 61.9699C13.9496 60.9932 14.1137 60.4657 14.2504 60.1141C14.4106 59.6804 14.6646 59.2859 15.0007 58.9654C15.3248 58.6333 15.7155 58.3793 16.1493 58.2192C16.5009 58.0825 17.0323 57.9184 18.0051 57.8754C19.06 57.8285 19.3765 57.8168 22.0449 57.8168C24.7174 57.8168 25.0337 57.8285 26.0848 57.8754C27.0616 57.9184 27.589 58.0825 27.9407 58.2192C28.3742 58.3793 28.7689 58.6333 29.0893 58.9654C29.4213 59.2897 29.6753 59.6804 29.8356 60.1141C29.9723 60.4657 30.1364 60.997 30.1794 61.9699C30.2263 63.0248 30.238 63.3412 30.238 66.0097C30.238 68.6783 30.2263 68.9908 30.1794 70.0457Z" fill="white"/>
<path d="M22.0371 60.8641C19.2007 60.8641 16.8994 63.1653 16.8994 66.0019C16.8994 68.8384 19.2007 71.1396 22.0371 71.1396C24.8737 71.1396 27.1749 68.8384 27.1749 66.0019C27.1749 63.1653 24.8737 60.8641 22.0371 60.8641ZM22.0371 69.3346C20.197 69.3346 18.7044 67.8421 18.7044 66.0019C18.7044 64.1616 20.197 62.6691 22.0371 62.6691C23.8774 62.6691 25.3698 64.1616 25.3698 66.0019C25.3698 67.8421 23.8774 69.3346 22.0371 69.3346Z" fill="white"/>
<path d="M28.5775 60.6611C28.5775 61.3235 28.0404 61.8605 27.3779 61.8605C26.7155 61.8605 26.1785 61.3235 26.1785 60.6611C26.1785 59.9986 26.7155 59.4617 27.3779 59.4617C28.0404 59.4617 28.5775 59.9986 28.5775 60.6611Z" fill="white"/>
</g>
<path d="M44 22C44 28.0751 41.5376 33.5751 37.5563 37.5563C33.5751 41.5376 28.0751 44 22 44C15.9249 44 10.4249 41.5376 6.44365 37.5563C2.46243 33.5751 0 28.0751 0 22C0 15.9249 2.46243 10.4249 6.44365 6.44365C10.4249 2.46243 15.9249 0 22 0C28.0751 0 33.5751 2.46243 37.5563 6.44365C41.5376 10.4249 44 15.9249 44 22Z" fill="white"/>
<g clip-path="url(#clip1)">
<path d="M31.9804 17.8801C31.9336 16.8174 31.7617 16.0868 31.5156 15.4537C31.2616 14.7818 30.8709 14.1801 30.359 13.68C29.8589 13.1721 29.2533 12.7774 28.5891 12.5274C27.9524 12.2813 27.2256 12.1094 26.163 12.0626C25.0924 12.0118 24.7525 12 22.0371 12C19.3217 12 18.9818 12.0118 17.9152 12.0586C16.8525 12.1055 16.1219 12.2775 15.489 12.5235C14.8169 12.7774 14.2153 13.1681 13.7152 13.68C13.2073 14.1801 12.8127 14.7857 12.5626 15.4499C12.3164 16.0868 12.1446 16.8134 12.0977 17.8761C12.0469 18.9467 12.0352 19.2866 12.0352 22.002C12.0352 24.7173 12.0469 25.0572 12.0938 26.1239C12.1406 27.1865 12.3126 27.9171 12.5588 28.5502C12.8127 29.2221 13.2073 29.8238 13.7152 30.3239C14.2153 30.8318 14.8209 31.2265 15.4851 31.4765C16.1219 31.7226 16.8486 31.8945 17.9114 31.9413C18.9779 31.9883 19.3179 31.9999 22.0333 31.9999C24.7487 31.9999 25.0885 31.9883 26.1552 31.9413C27.2179 31.8945 27.9484 31.7226 28.5813 31.4765C29.9254 30.9568 30.9881 29.8941 31.5078 28.5502C31.7538 27.9133 31.9258 27.1865 31.9727 26.1239C32.0195 25.0572 32.0313 24.7173 32.0313 22.002C32.0313 19.2866 32.0273 18.9467 31.9804 17.8801ZM30.1794 26.0457C30.1364 27.0225 29.9723 27.5499 29.8356 27.9015C29.4995 28.7728 28.808 29.4643 27.9367 29.8004C27.5851 29.9372 27.0538 30.1012 26.0809 30.1441C25.026 30.1911 24.7096 30.2027 22.0411 30.2027C19.3726 30.2027 19.0522 30.1911 18.0011 30.1441C17.0244 30.1012 16.4969 29.9372 16.1453 29.8004C15.7117 29.6402 15.317 29.3862 14.9967 29.0541C14.6646 28.7298 14.4106 28.3391 14.2504 27.9055C14.1137 27.5539 13.9496 27.0225 13.9067 26.0497C13.8597 24.9948 13.8481 24.6783 13.8481 22.0097C13.8481 19.3412 13.8597 19.0209 13.9067 17.9699C13.9496 16.9932 14.1137 16.4657 14.2504 16.1141C14.4106 15.6804 14.6646 15.2859 15.0007 14.9654C15.3248 14.6333 15.7155 14.3793 16.1493 14.2192C16.5009 14.0825 17.0323 13.9184 18.0051 13.8754C19.06 13.8285 19.3765 13.8168 22.0449 13.8168C24.7174 13.8168 25.0337 13.8285 26.0848 13.8754C27.0616 13.9184 27.589 14.0825 27.9407 14.2192C28.3742 14.3793 28.7689 14.6333 29.0893 14.9654C29.4213 15.2897 29.6753 15.6804 29.8356 16.1141C29.9723 16.4657 30.1364 16.997 30.1794 17.9699C30.2263 19.0248 30.238 19.3412 30.238 22.0097C30.238 24.6783 30.2263 24.9908 30.1794 26.0457Z" fill="#AFB1B8"/>
<path d="M22.0371 16.8641C19.2007 16.8641 16.8994 19.1653 16.8994 22.0019C16.8994 24.8384 19.2007 27.1396 22.0371 27.1396C24.8737 27.1396 27.1749 24.8384 27.1749 22.0019C27.1749 19.1653 24.8737 16.8641 22.0371 16.8641ZM22.0371 25.3346C20.197 25.3346 18.7044 23.8421 18.7044 22.0019C18.7044 20.1616 20.197 18.6691 22.0371 18.6691C23.8774 18.6691 25.3698 20.1616 25.3698 22.0019C25.3698 23.8421 23.8774 25.3346 22.0371 25.3346V25.3346Z" fill="#AFB1B8"/>
<path d="M28.5775 16.6611C28.5775 17.3235 28.0404 17.8605 27.3779 17.8605C26.7155 17.8605 26.1785 17.3235 26.1785 16.6611C26.1785 15.9986 26.7155 15.4617 27.3779 15.4617C28.0404 15.4617 28.5775 15.9986 28.5775 16.6611V16.6611Z" fill="#AFB1B8"/>
</g>
<defs>
<clipPath id="clip0">
<rect width="20" height="20" fill="white" transform="translate(12 56)"/>
</clipPath>
<clipPath id="clip1">
<rect width="20" height="20" fill="white" transform="translate(12 12)"/>
</clipPath>
</defs>
</svg>
