<svg width="44" height="88" viewBox="0 0 44 88" fill="none" xmlns="http://www.w3.org/2000/svg">
<path d="M44 66C44 72.0751 41.5376 77.5751 37.5564 81.5564C33.5751 85.5376 28.0751 88 22 88C15.9249 88 10.4249 85.5376 6.44365 81.5564C2.46243 77.5751 0 72.0751 0 66C0 59.9249 2.46243 54.4249 6.44365 50.4437C10.4249 46.4624 15.9249 44 22 44C28.0751 44 33.5751 46.4624 37.5564 50.4437C41.5376 54.4249 44 59.9249 44 66Z" fill="#2196F3"/>
<g clip-path="url(#clip0)">
<path d="M31.9951 76.0001V75.9993H32.0001V68.6643C32.0001 65.0759 31.2276 62.3118 27.0326 62.3118C25.0159 62.3118 23.6626 63.4184 23.1101 64.4676H23.0517V62.6468H19.0742V75.9993H23.2159V69.3876C23.2159 67.6468 23.5459 65.9634 25.7017 65.9634C27.8259 65.9634 27.8576 67.9501 27.8576 69.4993V76.0001H31.9951Z" fill="white"/>
<path d="M12.3301 62.6475H16.4767V76H12.3301V62.6475Z" fill="white"/>
<path d="M14.4017 56C13.0758 56 12 57.0758 12 58.4017C12 59.7275 13.0758 60.8258 14.4017 60.8258C15.7275 60.8258 16.8033 59.7275 16.8033 58.4017C16.8025 57.0758 15.7267 56 14.4017 56V56Z" fill="white"/>
</g>
<g clip-path="url(#clip1)">
<path d="M31.9951 32.0001V31.9993H32.0001V24.6643C32.0001 21.0759 31.2276 18.3118 27.0326 18.3118C25.0159 18.3118 23.6626 19.4184 23.1101 20.4676H23.0517V18.6468H19.0742V31.9993H23.2159V25.3876C23.2159 23.6468 23.5459 21.9634 25.7017 21.9634C27.8259 21.9634 27.8576 23.9501 27.8576 25.4993V32.0001H31.9951Z" fill="#AFB1B8"/>
<path d="M12.3301 18.6475H16.4767V32H12.3301V18.6475Z" fill="#AFB1B8"/>
<path d="M14.4017 12C13.0758 12 12 13.0758 12 14.4017C12 15.7275 13.0758 16.8258 14.4017 16.8258C15.7275 16.8258 16.8033 15.7275 16.8033 14.4017C16.8025 13.0758 15.7267 12 14.4017 12V12Z" fill="#AFB1B8"/>
</g>
<defs>
<clipPath id="clip0">
<rect width="20" height="20" fill="white" transform="translate(12 56)"/>
</clipPath>
<clipPath id="clip1">
<rect width="20" height="20" fill="white" transform="translate(12 12)"/>
</clipPath>
</defs>
</svg>
