<svg width="44" height="88" viewBox="0 0 44 88" fill="none" xmlns="http://www.w3.org/2000/svg">
<path d="M44 66C44 72.0751 41.5376 77.5751 37.5563 81.5563C33.5751 85.5376 28.0751 88 22 88C15.9249 88 10.4249 85.5376 6.44365 81.5563C2.46243 77.5751 0 72.0751 0 66C0 59.9249 2.46243 54.4249 6.44365 50.4437C10.4249 46.4624 15.9249 44 22 44C28.0751 44 33.5751 46.4624 37.5563 50.4437C41.5376 54.4249 44 59.9249 44 66Z" fill="#2196F3"/>
<g clip-path="url(#clip0)">
<path d="M32 59.7988C31.2562 60.125 30.4637 60.3412 29.6375 60.4462C30.4875 59.9387 31.1363 59.1412 31.4413 58.18C30.6488 58.6525 29.7737 58.9863 28.8412 59.1725C28.0887 58.3713 27.0162 57.875 25.8462 57.875C23.5762 57.875 21.7487 59.7175 21.7487 61.9763C21.7487 62.3013 21.7762 62.6137 21.8438 62.9112C18.435 62.745 15.4188 61.1113 13.3925 58.6225C13.0387 59.2363 12.8313 59.9388 12.8313 60.695C12.8313 62.115 13.5625 63.3737 14.6525 64.1025C13.9937 64.09 13.3475 63.8988 12.8 63.5975C12.8 63.61 12.8 63.6262 12.8 63.6425C12.8 65.635 14.2212 67.29 16.085 67.6712C15.7512 67.7625 15.3875 67.8062 15.01 67.8062C14.7475 67.8062 14.4825 67.7912 14.2337 67.7362C14.765 69.36 16.2725 70.5537 18.065 70.5925C16.67 71.6837 14.8988 72.3412 12.9813 72.3412C12.645 72.3412 12.3225 72.3262 12 72.285C13.8162 73.4562 15.9688 74.125 18.29 74.125C25.835 74.125 29.96 67.875 29.96 62.4575C29.96 62.2762 29.9537 62.1013 29.945 61.9275C30.7587 61.35 31.4425 60.6288 32 59.7988Z" fill="white"/>
</g>
<g clip-path="url(#clip1)">
<path d="M32 15.7988C31.2563 16.125 30.4637 16.3412 29.6375 16.4462C30.4875 15.9388 31.1363 15.1412 31.4412 14.18C30.6488 14.6525 29.7738 14.9863 28.8412 15.1725C28.0887 14.3713 27.0162 13.875 25.8462 13.875C23.5763 13.875 21.7487 15.7175 21.7487 17.9763C21.7487 18.3012 21.7762 18.6137 21.8438 18.9112C18.435 18.745 15.4188 17.1113 13.3925 14.6225C13.0387 15.2363 12.8313 15.9388 12.8313 16.695C12.8313 18.115 13.5625 19.3737 14.6525 20.1025C13.9937 20.09 13.3475 19.8988 12.8 19.5975C12.8 19.61 12.8 19.6262 12.8 19.6425C12.8 21.635 14.2212 23.29 16.085 23.6712C15.7512 23.7625 15.3875 23.8062 15.01 23.8062C14.7475 23.8062 14.4825 23.7913 14.2337 23.7362C14.765 25.36 16.2725 26.5538 18.065 26.5925C16.67 27.6838 14.8988 28.3412 12.9813 28.3412C12.645 28.3412 12.3225 28.3263 12 28.285C13.8162 29.4563 15.9688 30.125 18.29 30.125C25.835 30.125 29.96 23.875 29.96 18.4575C29.96 18.2762 29.9538 18.1013 29.945 17.9275C30.7588 17.35 31.4425 16.6288 32 15.7988Z" fill="#AFB1B8"/>
</g>
<defs>
<clipPath id="clip0">
<rect width="20" height="20" fill="white" transform="translate(12 56)"/>
</clipPath>
<clipPath id="clip1">
<rect width="20" height="20" fill="white" transform="translate(12 12)"/>
</clipPath>
</defs>
</svg>
